<?xml version="1.0" standalone="no"?>
<!DOCTYPE svg PUBLIC "-//W3C//DTD SVG 20010904//EN"
 "http://www.w3.org/TR/2001/REC-SVG-20010904/DTD/svg10.dtd">
<svg version="1.0" xmlns="http://www.w3.org/2000/svg"
 width="640.000000pt" height="437.000000pt" viewBox="0 0 640.000000 437.000000"
 preserveAspectRatio="xMidYMid meet">

<g transform="translate(0.000000,437.000000) scale(0.100000,-0.100000)"
fill="#000000" stroke="none">
<path d="M2790 4312 c0 -4 5 -13 11 -19 14 -14 -46 -242 -68 -258 -9 -7 -13
-17 -10 -22 7 -10 124 -39 131 -32 2 2 19 60 36 129 22 85 39 131 53 143 26
22 17 31 -55 51 -61 17 -98 20 -98 8z"/>
<path d="M2298 4226 c-45 -25 -54 -62 -13 -52 14 4 41 0 60 -9 29 -12 37 -12
41 -1 5 12 -35 86 -46 84 -3 0 -22 -10 -42 -22z"/>
<path d="M3156 4223 c-3 -3 -6 -50 -6 -104 l0 -98 -35 2 c-19 1 -35 3 -35 4 0
1 14 24 30 50 28 44 40 93 22 93 -4 0 -32 -41 -61 -91 -49 -82 -74 -110 -86
-97 -3 2 0 19 5 37 12 43 -12 54 -40 18 -11 -14 -34 -28 -50 -32 -43 -10 -37
-32 13 -45 23 -6 64 -18 91 -26 57 -16 69 -12 54 21 -8 18 -8 28 1 39 10 12
17 11 51 -5 44 -21 48 -30 25 -53 -8 -8 -15 -19 -15 -24 0 -10 147 -50 152
-41 2 2 1 78 -2 168 l-5 165 -25 6 c-65 17 -77 19 -84 13z"/>
<path d="M2215 4177 c-11 -5 -38 -21 -59 -35 l-39 -24 26 -22 c34 -29 127
-191 127 -221 0 -14 6 -25 13 -25 12 0 117 57 117 64 0 2 -16 30 -35 62 -39
64 -43 79 -19 70 36 -14 64 -18 64 -8 0 5 -12 30 -26 56 -30 53 -54 61 -54 17
0 -50 -18 -45 -51 14 -37 65 -39 67 -64 52z"/>
<path d="M3507 4132 c-3 -4 -2 -14 2 -21 12 -18 -46 -243 -66 -259 -12 -8 -14
-15 -6 -23 14 -14 116 -40 125 -31 7 8 78 276 78 297 0 7 -21 18 -47 24 -27 7
-55 14 -65 17 -9 3 -19 1 -21 -4z"/>
<path d="M3654 4088 c-4 -6 4 -19 19 -30 14 -10 28 -32 32 -48 6 -28 28 -40
39 -22 3 5 8 27 12 49 l6 40 -45 12 c-56 14 -54 14 -63 -1z"/>
<path d="M2003 4049 c-33 -9 -46 -39 -19 -39 13 0 66 -58 66 -73 0 -3 16 -33
36 -66 25 -42 34 -66 29 -81 -5 -17 -10 -19 -21 -9 -8 6 -14 15 -14 19 0 14
-122 220 -130 220 -12 0 -99 -51 -106 -62 -4 -6 2 -18 14 -27 32 -25 122 -189
122 -222 0 -16 3 -29 6 -29 10 0 108 54 115 63 4 5 17 14 30 21 13 6 34 27 47
46 20 29 23 43 18 84 -12 108 -103 180 -193 155z"/>
<path d="M2436 4044 c-3 -9 -6 -26 -6 -39 0 -12 -7 -28 -15 -35 -20 -17 -19
-40 3 -40 22 0 82 36 82 50 0 13 -43 80 -51 80 -4 0 -10 -7 -13 -16z"/>
<path d="M3804 4016 c-27 -27 -34 -42 -34 -72 0 -34 7 -45 61 -96 64 -59 74
-90 31 -96 -25 -4 -30 -30 -7 -38 28 -11 88 7 117 36 21 22 28 38 28 68 0 41
-16 63 -88 124 -37 30 -41 53 -12 68 35 19 24 40 -21 40 -33 0 -47 -6 -75 -34z"/>
<path d="M3930 4030 c0 -6 11 -26 25 -44 14 -18 25 -43 25 -54 0 -15 6 -22 19
-22 16 0 21 9 26 45 10 60 10 59 -22 67 -15 3 -38 10 -50 13 -15 5 -23 3 -23
-5z"/>
<path d="M3664 3986 c-3 -9 -13 -16 -20 -16 -8 0 -17 -7 -20 -15 -7 -17 22
-85 36 -85 9 0 27 54 32 99 3 27 -19 41 -28 17z"/>
<path d="M4130 3958 c-78 -40 -117 -133 -91 -218 12 -42 61 -90 92 -90 16 0
18 5 13 28 -6 24 -5 25 8 14 9 -7 14 -21 11 -32 -4 -13 1 -22 13 -26 11 -3 33
-13 51 -22 26 -13 37 -14 57 -4 31 14 34 32 6 32 -25 0 -26 12 -1 27 30 19 61
94 61 149 0 55 -24 103 -64 130 -32 20 -65 12 -46 -11 12 -15 6 -49 -36 -206
-3 -10 -15 -16 -34 -16 -23 0 -29 4 -26 16 2 9 14 56 26 105 14 52 31 97 43
109 20 20 20 21 1 28 -30 12 -37 11 -84 -13z"/>
<path d="M4416 3872 c3 -15 -6 -73 -21 -130 -22 -89 -24 -107 -13 -129 14 -28
94 -77 110 -67 5 3 7 22 3 43 -7 43 38 230 60 247 26 20 16 31 -43 48 -87 24
-103 22 -96 -12z"/>
<path d="M1642 3844 c-52 -31 -50 -48 5 -49 23 -1 48 -7 57 -14 27 -22 31 14
6 54 -12 19 -22 35 -23 35 -1 0 -21 -12 -45 -26z"/>
<path d="M3739 3843 c-6 -16 -13 -43 -16 -60 -5 -29 -3 -33 16 -33 12 0 35 -7
52 -15 25 -14 30 -14 35 -1 3 8 -4 24 -15 35 -11 11 -23 33 -27 48 -10 46 -13
53 -24 53 -6 0 -15 -12 -21 -27z"/>
<path d="M3664 3840 c-11 -12 -34 -22 -50 -24 -16 -2 -29 -9 -29 -17 0 -16 93
-45 106 -32 4 4 11 27 15 51 8 48 -7 56 -42 22z"/>
<path d="M4620 3840 c0 -6 5 -19 12 -30 10 -15 8 -37 -11 -114 -24 -100 -30
-109 -73 -120 -39 -9 -37 -36 2 -36 49 0 73 34 105 148 21 74 33 103 47 108
30 9 20 32 -19 43 -48 14 -63 14 -63 1z"/>
<path d="M4757 3814 c-3 -4 -2 -14 2 -23 13 -24 -42 -239 -66 -256 -25 -19
-10 -30 63 -49 84 -22 87 -21 80 10 -10 37 41 234 65 256 10 9 19 18 19 21 0
14 -152 52 -163 41z"/>
<path d="M1523 3777 c-55 -32 -66 -51 -35 -61 23 -8 134 -209 126 -230 -3 -9
-1 -16 5 -16 16 0 108 47 115 59 4 5 -6 31 -22 58 -15 26 -31 56 -35 67 -8 19
-8 19 56 -1 25 -8 22 20 -9 68 -29 46 -48 46 -52 0 -4 -44 -19 -35 -54 29 -16
30 -32 56 -36 57 -4 0 -31 -13 -59 -30z"/>
<path d="M2644 3765 l-340 -12 -90 -55 c-49 -30 -177 -109 -285 -176 -186
-114 -289 -175 -819 -487 -124 -72 -353 -207 -510 -300 -157 -93 -327 -193
-377 -223 -51 -29 -93 -59 -92 -65 0 -7 10 -32 22 -56 21 -43 28 -47 140 -96
65 -28 122 -56 127 -61 13 -13 15 -487 2 -492 -14 -4 -55 43 -62 70 -7 27 -30
36 -30 11 0 -10 -7 -29 -16 -41 -13 -18 -19 -21 -30 -11 -8 6 -14 17 -14 25 0
30 -20 22 -35 -13 -9 -20 -23 -45 -32 -55 -13 -14 -14 -21 -5 -30 7 -7 12 -21
12 -32 0 -23 19 -79 38 -113 7 -12 12 -34 13 -50 0 -15 4 -37 8 -48 8 -19 8
-19 19 2 7 12 12 38 12 57 0 20 4 36 9 36 16 0 22 -235 17 -625 -3 -209 -8
-432 -10 -495 -4 -82 -2 -106 5 -85 5 17 8 64 6 105 -5 93 13 119 62 88 15 -9
18 -20 15 -47 l-4 -36 9 34 c7 24 5 41 -4 55 -9 15 -15 104 -21 311 -15 506
-9 676 23 702 8 6 12 16 8 22 -3 6 -3 32 1 59 l8 47 7 -45 c11 -75 15 -1330 4
-1331 -6 0 -14 -7 -18 -15 -15 -27 -27 -3 -29 59 l-1 62 -7 -70 c-3 -38 -2
-75 3 -82 13 -18 -1 -33 -32 -33 -36 0 -56 19 -36 34 10 8 12 15 5 26 -7 11
-12 12 -17 4 -5 -6 -57 -28 -118 -47 -154 -50 -145 -45 -145 -82 0 -19 5 -37
12 -41 17 -11 621 -80 904 -103 139 -12 322 -20 410 -20 l159 2 -150 8 c-319
18 -712 51 -1000 85 -165 20 -301 36 -301 37 -1 1 -4 13 -6 27 l-3 25 120 -2
c66 -2 356 -15 645 -29 556 -28 894 -32 1355 -14 138 5 540 14 895 19 355 6
692 13 750 16 146 6 466 47 787 100 149 25 277 45 283 45 8 0 11 -15 8 -45 -2
-27 1 -44 7 -42 9 3 8 87 -1 96 -2 2 -72 17 -156 33 -240 45 -260 49 -256 54
3 2 157 29 343 60 l338 56 176 -47 c290 -77 290 -77 261 -87 -20 -6 -19 -7 9
-3 18 3 47 5 63 5 17 0 27 4 23 10 -4 6 -12 10 -18 8 -18 -3 -372 85 -359 90
7 2 89 -6 184 -19 95 -12 178 -22 183 -21 6 0 73 12 150 26 288 55 514 96 524
96 15 0 14 -57 -1 -63 -8 -3 -6 -6 5 -6 14 -1 17 7 17 42 l0 43 -102 30 c-57
17 -241 71 -410 120 l-307 89 -5 45 c-3 25 -8 270 -11 545 -4 275 -8 523 -10
551 -2 28 -5 182 -6 342 l-3 290 56 64 c31 35 90 101 132 148 41 47 76 88 76
92 0 6 -21 11 -165 40 -45 9 -59 19 -142 103 l-92 93 -133 36 c-73 20 -221 59
-328 87 -107 28 -310 82 -450 119 -247 66 -576 154 -845 226 -71 18 -231 61
-355 94 -136 36 -243 59 -270 58 -25 0 -198 -6 -386 -13z m424 -32 c2 -8 -6
-13 -21 -13 -42 0 -87 12 -81 22 8 13 97 5 102 -9z m-209 -2 c10 -6 10 -10 1
-16 -15 -9 -98 3 -105 16 -8 11 85 12 104 0z m-199 -11 c8 -5 11 -12 8 -16
-10 -9 -118 6 -118 17 0 12 91 12 110 -1z m-196 -6 c9 -3 16 -11 16 -16 0 -13
-100 -1 -114 13 -11 10 72 13 98 3z m771 -15 c4 -6 5 -13 2 -15 -9 -9 -117 7
-117 17 0 13 108 11 115 -2z m-211 -5 c26 -10 18 -24 -13 -24 -43 0 -91 11
-91 21 0 10 80 12 104 3z m-186 -23 c4 -11 -5 -13 -49 -7 -82 11 -96 26 -20
24 45 -2 66 -7 69 -17z m-438 0 c0 -16 -33 -21 -73 -12 -60 14 -56 21 11 21
34 0 62 -4 62 -9z m240 -1 c28 -18 -15 -22 -66 -6 l-49 15 50 0 c28 0 57 -3
65 -9z m760 -10 c29 -18 0 -22 -62 -7 l-63 15 55 1 c30 0 62 -3 70 -9z m-407
-17 c4 -2 4 -9 1 -15 -6 -10 -78 -4 -113 10 -13 5 -11 8 9 13 23 7 86 2 103
-8z m205 2 c-4 -12 -75 -8 -97 5 -11 7 1 9 42 8 32 -2 56 -7 55 -13z m-640
-14 c4 -11 -5 -12 -43 -7 -83 13 -97 26 -26 23 44 -1 66 -6 69 -16z m247 -2
c5 -5 -1 -9 -17 -9 -43 0 -88 12 -82 22 7 11 84 1 99 -13z m564 -8 c7 -5 9
-11 4 -14 -11 -7 -110 7 -120 17 -10 9 100 7 116 -3z m196 -1 c17 -7 16 -9
-10 -9 -16 0 -48 4 -70 8 l-40 9 50 0 c28 0 59 -3 70 -8z m-846 -16 c10 -3 11
-8 4 -15 -8 -8 -28 -7 -69 2 -49 11 -54 14 -34 20 24 6 68 3 99 -7z m471 -5
c0 -16 -16 -17 -75 -4 -55 11 -57 13 -25 16 46 5 100 -1 100 -12z m-250 1 c49
-14 -3 -20 -55 -6 l-50 14 40 0 c22 0 51 -3 65 -8z m749 -16 c2 -2 -7 -4 -22
-4 -14 0 -29 5 -32 10 -6 10 42 4 54 -6z m-316 -11 c19 -12 -22 -23 -48 -13
-14 5 -38 10 -51 10 -16 0 -23 4 -18 11 6 11 96 5 117 -8z m164 11 c13 -4 21
-10 18 -14 -5 -7 -103 5 -113 15 -7 7 67 6 95 -1z m-684 -15 c20 -5 37 -15 37
-20 0 -6 -8 -8 -17 -5 -10 3 -35 8 -55 12 -21 3 -38 10 -38 15 0 12 26 11 73
-2z m285 -3 c14 -15 -10 -15 -64 -1 l-59 15 59 -4 c32 -3 61 -7 64 -10z m672
-12 c0 -2 -11 -4 -25 -4 -14 0 -25 4 -25 9 0 4 11 6 25 3 14 -2 25 -6 25 -8z
m-117 0 c46 -8 49 -24 5 -24 -45 0 -79 10 -72 21 6 11 16 11 67 3z m-619 -25
c17 -15 2 -17 -51 -7 -67 13 -71 33 -5 23 26 -4 51 -11 56 -16z m254 7 c13
-13 -10 -17 -62 -11 -75 10 -75 30 0 22 31 -3 59 -8 62 -11z m224 -2 c8 -5 6
-9 -7 -14 -19 -7 -99 10 -112 24 -10 10 101 1 119 -10z m335 -10 c13 -4 20
-10 17 -15 -11 -18 -114 -7 -114 12 0 10 63 12 97 3z m-599 -29 c16 -16 -17
-23 -58 -13 -71 17 -74 31 -6 25 32 -3 61 -8 64 -12z m196 9 c35 -14 14 -26
-35 -22 -69 7 -89 28 -27 28 26 0 53 -3 62 -6z m226 -3 c18 -5 21 -9 12 -15
-16 -10 -99 1 -107 15 -7 10 57 11 95 0z m339 -17 c1 -1 0 -8 -4 -14 -5 -8
-22 -10 -54 -5 -54 8 -68 15 -51 25 11 7 100 2 109 -6z m-184 -14 c38 -14 21
-33 -24 -26 -86 15 -94 18 -80 27 19 12 72 11 104 -1z m-197 -19 c4 -11 -4
-13 -42 -8 -77 11 -92 27 -22 25 40 -2 61 -8 64 -17z m-221 -3 c-5 -15 -89
-13 -115 2 -12 7 2 9 51 10 51 0 68 -3 64 -12z m741 6 c26 -8 29 -20 5 -26
-24 -6 -107 15 -97 25 9 8 60 9 92 1z m-1786 -24 c51 -10 201 -40 333 -65 353
-68 546 -105 578 -111 30 -6 30 -6 21 -28 -3 -9 -17 -16 -31 -16 -14 0 -249
43 -522 95 l-498 95 -44 -23 c-24 -13 -126 -65 -226 -116 -201 -102 -210 -112
-155 -163 21 -20 60 -33 182 -62 85 -20 195 -46 244 -58 72 -17 93 -19 109 -9
29 19 249 103 272 105 20 1 20 -6 23 -911 2 -807 0 -913 -13 -913 -8 0 -16 1
-17 3 -1 1 -5 355 -8 787 l-5 784 -30 1 c-30 0 -30 -1 -35 -65 l-5 -64 -45
-11 c-43 -10 -45 -13 -48 -49 -5 -61 2 -70 39 -51 63 33 59 72 57 -677 l-3
-682 -110 -28 c-60 -15 -115 -28 -122 -28 -9 0 -10 61 -7 243 2 133 6 437 8
675 4 369 2 432 -10 432 -24 0 -478 -123 -491 -133 -10 -7 -13 -154 -13 -673
0 -364 -4 -665 -8 -668 -4 -3 -240 -63 -523 -135 -282 -72 -583 -148 -667
-170 -107 -27 -155 -36 -157 -28 -3 7 -6 352 -7 766 l-3 755 135 53 c74 29
342 132 595 229 253 96 594 227 758 290 164 63 302 114 308 114 5 0 9 3 9 8 0
4 -96 28 -212 52 -211 45 -213 45 -254 85 -23 22 -43 46 -45 53 -4 10 -37 -1
-124 -42 -66 -31 -127 -58 -135 -59 -8 -2 -21 -6 -28 -11 -20 -12 -39 10 -26
32 5 9 73 48 149 86 77 38 255 127 395 197 161 80 267 128 287 128 18 1 74 -8
125 -19z m1627 4 c39 -8 41 -24 2 -24 -45 0 -91 12 -85 21 6 11 39 12 83 3z
m-412 -18 c4 -3 2 -11 -3 -16 -13 -13 -116 9 -107 23 6 10 99 4 110 -7z m207
8 c9 -3 13 -10 10 -15 -6 -10 -84 -1 -98 12 -11 10 63 12 88 3z m521 -13 c19
-8 19 -8 -2 -15 -20 -7 -103 9 -103 19 0 8 83 4 105 -4z m-367 -17 c12 -4 22
-11 22 -17 0 -12 -99 -2 -114 13 -11 11 53 14 92 4z m237 -4 c11 -19 -23 -22
-72 -7 l-48 15 57 1 c31 1 60 -4 63 -9z m-426 -9 c25 -16 -31 -24 -78 -11 -22
6 -41 13 -41 15 0 9 105 5 119 -4z m701 -8 c13 -4 13 -5 -1 -13 -17 -10 -99 7
-99 21 0 9 66 3 100 -8z m-327 -20 c4 -2 5 -9 1 -14 -5 -9 -45 -6 -104 8 l-25
6 25 7 c23 7 85 3 103 -7z m-216 -7 c4 -3 2 -10 -3 -16 -12 -12 -106 8 -98 22
7 11 90 6 101 -6z m423 -1 c-6 -12 -69 -9 -102 5 -17 7 -7 9 42 7 39 -1 63 -6
60 -12z m265 -16 c5 -5 -2 -9 -20 -9 -43 0 -76 11 -69 22 7 11 74 1 89 -13z
m-521 -15 c35 -13 15 -27 -30 -20 -70 9 -90 25 -32 26 25 0 53 -3 62 -6z m210
0 c9 -3 13 -10 10 -16 -6 -10 -90 -1 -114 13 -17 10 79 13 104 3z m194 0 c12
-4 22 -10 22 -15 0 -12 -38 -10 -85 6 l-40 13 40 1 c22 0 50 -2 63 -5z m230
-10 c35 -10 26 -26 -10 -19 -39 8 -61 25 -32 25 10 0 29 -3 42 -6z m-460 -43
c4 -11 -4 -13 -38 -7 -70 11 -84 26 -21 24 36 -2 56 -8 59 -17z m197 9 c7 -12
-58 -12 -95 0 -19 6 -12 8 32 9 31 1 60 -3 63 -9z m200 0 c27 -11 -59 -11 -95
0 -20 6 -14 8 25 8 28 0 59 -3 70 -8z m225 -10 c12 -8 12 -10 -5 -10 -11 0
-27 5 -35 10 -12 8 -12 10 5 10 11 0 27 -5 35 -10z m-477 -26 c21 -3 35 -10
30 -14 -11 -11 -114 10 -107 22 3 5 13 7 22 4 10 -3 34 -8 55 -12z m217 -5
c11 -6 6 -8 -16 -9 -49 0 -98 12 -83 21 14 8 76 1 99 -12z m223 4 c5 -3 5 -9
0 -14 -11 -11 -124 12 -116 24 5 8 99 0 116 -10z m-1433 3 c0 -2 2 -10 5 -18
4 -10 -4 -13 -35 -10 -33 3 -39 7 -29 18 10 12 59 20 59 10z m1580 -6 c12 -8
12 -10 -5 -9 -11 0 -29 4 -40 9 -18 8 -18 9 5 9 14 0 32 -4 40 -9z m-1306 -54
c98 -19 179 -36 182 -38 2 -3 -2 -13 -10 -23 -13 -18 -18 -17 -157 10 -95 18
-160 37 -191 54 -51 28 -63 47 -25 37 13 -3 104 -21 201 -40z m1324 8 c4 -4
-15 -4 -42 0 -27 3 -58 7 -70 7 -15 1 -12 3 9 8 31 7 91 -1 103 -15z m79 20
c-3 -3 -12 -4 -19 -1 -8 3 -5 6 6 6 11 1 17 -2 13 -5z m-487 -14 c19 -13 -46
-13 -75 0 -16 7 -11 9 20 9 22 0 47 -4 55 -9z m200 0 c29 -18 0 -22 -57 -7
l-58 15 50 1 c28 0 57 -3 65 -9z m-65 -30 c17 -7 16 -9 -10 -9 -16 0 -39 4
-50 9 -17 7 -16 9 10 9 17 0 39 -4 50 -9z m210 -5 c31 -10 34 -13 15 -13 -14
0 -41 6 -60 13 -46 18 -9 18 45 0z m-66 -21 c17 -4 31 -10 31 -15 0 -9 -50 -2
-85 12 -19 8 -19 8 1 8 12 1 36 -2 53 -5z m363 -3 c-12 -7 -62 -4 -62 5 0 2
17 4 38 4 23 0 32 -3 24 -9z m-1879 -121 c9 -62 12 -109 7 -114 -12 -12 -25
19 -54 127 l-24 88 21 9 c12 4 25 5 28 1 4 -3 13 -53 22 -111z m80 60 c-5
-120 -14 -180 -28 -180 -16 0 -22 40 -25 153 l-1 88 28 -3 c27 -3 28 -4 26
-58z m1686 51 c25 -16 -4 -19 -54 -6 l-50 14 45 0 c25 0 51 -3 59 -8z m-1630
-38 c-1 -68 -24 -176 -38 -181 -10 -3 -12 3 -8 24 3 16 9 58 12 94 4 36 9 73
11 83 9 31 24 18 23 -20z m446 17 c20 -23 9 -31 -37 -27 -32 2 -37 21 -10 36
24 14 26 14 47 -9z m312 -34 c254 -51 516 -103 1018 -199 180 -35 220 -46 223
-60 5 -23 -17 -22 -174 7 -562 106 -1210 230 -1264 242 -35 8 -68 20 -72 27
-8 13 -11 37 -4 37 3 0 125 -24 273 -54z m1083 44 c0 -13 -20 -13 -40 0 -12 8
-9 10 13 10 15 0 27 -4 27 -10z m-313 -16 c-3 -3 -12 -4 -19 -1 -8 3 -5 6 6 6
11 1 17 -2 13 -5z m218 -3 c19 -1 25 -4 17 -9 -14 -10 -70 -4 -77 8 -3 5 3 7
12 5 10 -2 32 -4 48 -4z m164 -4 c8 -11 5 -13 -19 -9 -16 2 -27 8 -24 13 8 13
30 11 43 -4z m-2419 -62 c146 -25 274 -47 285 -50 24 -5 47 -60 39 -92 -5 -18
-1 -25 18 -32 31 -12 50 -55 53 -123 3 -65 18 -134 28 -130 4 1 11 2 16 2 11
0 22 59 25 135 2 72 12 105 32 105 22 0 30 31 11 45 -24 17 -11 58 17 51 11
-2 47 -8 79 -11 49 -6 57 -10 58 -29 1 -11 3 -32 4 -46 2 -14 -3 -32 -11 -40
-16 -19 -8 -89 12 -97 17 -6 18 -33 2 -33 -10 0 -12 -20 -10 -75 4 -87 18 -81
-143 -60 -60 8 -112 15 -114 15 -2 0 -2 -289 0 -642 l4 -643 -185 -6 c-102 -3
-263 -10 -357 -14 l-173 -7 3 683 2 684 103 -3 103 -3 -3 48 -3 48 -80 8
c-135 14 -126 1 -124 184 0 87 3 161 5 165 8 12 23 10 304 -37z m2438 24 c18
-6 29 -15 26 -20 -6 -10 -43 -3 -89 17 l-30 13 31 1 c17 0 45 -5 62 -11z
m-1455 -109 c-5 -119 -15 -180 -28 -180 -9 0 -14 30 -20 110 -3 60 -4 114 0
120 4 6 17 10 28 8 20 -3 22 -8 20 -58z m-84 -32 c7 -46 15 -98 18 -117 4 -26
3 -33 -8 -29 -14 5 -67 164 -68 206 -1 17 5 22 23 22 22 0 24 -5 35 -82z m132
-29 c-12 -92 -23 -130 -34 -113 -4 7 10 145 22 224 1 2 6 -1 13 -8 9 -9 9 -33
-1 -103z m-227 12 c24 -5 31 -14 47 -66 10 -33 16 -69 13 -81 -4 -17 1 -25 23
-36 15 -7 28 -19 28 -25 0 -7 9 -19 20 -27 16 -12 18 -17 8 -27 -15 -15 -17
-85 -3 -94 6 -3 10 -13 10 -22 0 -14 -11 -15 -87 -9 -47 3 -93 12 -100 18 -12
9 -13 39 -9 150 3 81 1 140 -5 143 -5 4 -9 24 -9 46 0 42 4 44 64 30z m456
-76 c542 -88 1220 -204 1229 -209 7 -5 11 -52 11 -132 l0 -124 -42 0 c-24 1
-144 11 -268 24 -124 13 -229 21 -233 19 -8 -5 -2 -447 8 -628 2 -44 5 -145 6
-225 l1 -145 -47 -6 c-25 -3 -48 -2 -51 3 -4 5 -7 790 -4 896 0 6 9 12 20 12
20 0 20 5 18 178 l-3 177 -62 3 -63 3 0 -179 c0 -171 1 -180 20 -185 20 -5 20
-14 20 -455 0 -248 -3 -453 -8 -456 -4 -2 -57 -6 -117 -7 l-110 -3 -3 76 -3
76 63 6 c35 4 86 7 113 9 l50 2 3 207 2 207 -112 3 -113 3 0 90 0 90 28 3 27
3 0 125 0 124 -75 0 -75 0 0 -125 0 -125 30 0 30 0 0 -95 0 -95 -110 0 -110 0
0 -221 0 -220 110 7 110 7 0 -80 0 -80 -165 -7 c-91 -4 -169 -5 -173 -2 -5 3
-11 249 -14 547 -4 417 -8 543 -18 549 -7 4 -44 11 -84 14 -39 4 -79 9 -88 12
-19 6 -25 39 -9 48 5 3 7 33 4 66 -6 62 12 110 41 110 17 0 16 32 -2 43 -8 5
-10 17 -6 30 18 59 24 68 42 63 9 -2 91 -17 182 -31z m-634 -381 l42 -6 6 -51
c3 -29 7 -226 8 -439 2 -287 0 -390 -9 -399 -8 -8 -10 -33 -6 -74 5 -54 3 -66
-16 -92 -24 -32 -122 -359 -124 -413 0 -19 3 -50 8 -68 8 -33 7 -34 -21 -30
l-29 3 -3 518 -2 517 96 0 c86 0 95 2 92 18 -3 14 -17 17 -95 20 l-91 3 -4 62
c-2 34 -2 65 0 70 2 4 38 7 82 7 58 0 79 4 83 14 9 23 -2 26 -84 26 -89 0 -93
4 -87 91 l3 44 73 3 c54 2 72 6 72 17 0 11 -18 15 -72 17 l-73 3 -3 79 -3 78
58 -6 c32 -4 77 -9 99 -12z m-1353 -571 c-3 -313 -6 -572 -8 -578 -2 -5 -4
220 -4 501 -1 397 -4 514 -13 521 -7 5 -66 18 -131 28 -65 9 -115 20 -112 24
6 6 238 68 261 70 8 1 10 -151 7 -566z m1640 536 c64 -7 117 -16 117 -21 0 -5
15 -6 34 -3 l34 7 6 -354 c8 -507 16 -1077 16 -1194 l0 -100 60 4 60 4 0 -35
c0 -20 -4 -38 -8 -41 -15 -9 -382 -47 -393 -40 -9 5 -9 -28 -4 -122 4 -71 8
-141 8 -156 0 -16 6 -28 14 -28 7 0 13 -11 13 -25 0 -35 -26 -43 -135 -41 -86
1 -89 2 -96 26 l-7 25 -1 -24 c-1 -18 -4 -22 -12 -14 -19 19 -6 66 21 80 14 7
19 13 11 13 -11 0 -12 31 -5 188 4 103 8 202 7 221 -1 25 3 34 17 38 11 3 16
11 13 19 -4 11 8 14 57 14 50 0 61 -3 57 -14 -4 -9 2 -17 14 -21 20 -7 25 -25
10 -41 -5 -5 -7 -23 -4 -40 5 -30 6 -31 41 -24 21 5 72 12 115 15 42 4 77 10
77 14 0 3 -35 13 -77 21 l-78 15 0 318 0 317 -58 0 c-67 0 -76 11 -60 71 8 29
7 45 -2 63 -14 27 -33 855 -20 875 3 7 14 10 23 7 10 -2 70 -10 135 -17z
m-1777 -87 l99 -17 3 -513 2 -512 -169 0 -170 0 -1 528 c0 291 3 532 7 536 9
9 92 1 229 -22z m3039 -12 c61 -5 142 -15 182 -22 l72 -12 5 -40 c7 -59 28
-1338 21 -1344 -6 -6 -154 14 -163 22 -3 4 -7 25 -8 49 -2 23 -3 46 -3 50 -1
4 -7 7 -13 6 -30 -5 -228 14 -228 22 0 5 0 12 0 17 0 4 39 9 87 12 l88 5 0
240 0 240 -97 3 -98 3 0 39 0 40 45 0 44 0 3 160 c2 88 2 165 0 170 -2 6 -26
10 -53 10 l-49 0 -1 88 c-1 48 -3 121 -5 162 -5 93 -2 101 33 95 15 -3 78 -9
138 -15z m-387 -547 l2 -191 -117 -6 c-65 -4 -164 -9 -220 -12 l-103 -6 0 205
0 206 218 -2 217 -2 3 -192z m-4448 7 c0 -5 -4 -10 -10 -10 -5 0 -10 5 -10 10
0 6 5 10 10 10 6 0 10 -4 10 -10z m-26 -120 l6 -55 -19 55 c-10 30 -16 59 -14
63 10 17 22 -10 27 -63z m45 33 c-1 -21 -5 -49 -9 -63 -7 -22 -8 -20 -9 15 -1
22 -4 50 -7 63 -5 16 -2 22 10 22 12 0 16 -9 15 -37z m-139 15 c0 -7 2 -31 5
-53 l5 -40 -14 35 c-17 42 -20 70 -6 70 6 0 10 -6 10 -12z m39 -40 c-1 -45 -2
-49 -9 -23 -11 44 -11 75 0 75 6 0 9 -23 9 -52z m122 -18 c-6 -30 -9 -36 -10
-19 -1 33 12 99 16 79 2 -8 -1 -35 -6 -60z m3017 -426 l22 -6 -2 -277 -3 -276
-49 -3 -49 -3 6 182 c4 100 7 226 7 280 0 100 0 99 40 108 3 0 15 -2 28 -5z
m-364 -14 l26 -10 0 -283 c0 -281 0 -284 -22 -304 -36 -31 -46 -35 -69 -22
l-21 11 7 302 c8 336 8 334 79 306z m114 4 l22 -6 0 -287 0 -288 -24 -22 c-25
-24 -66 -22 -66 2 0 7 0 140 0 297 0 255 2 286 17 298 19 14 20 14 51 6z m130
0 l22 -6 0 -282 0 -282 -30 -22 c-25 -19 -34 -21 -51 -11 -21 11 -22 13 -15
258 3 135 6 267 6 293 0 45 3 49 40 57 3 0 15 -2 28 -5z m-1318 -184 c4 171 4
177 10 85 l6 -100 4 100 4 100 6 -75 6 -75 4 75 3 75 7 -55 6 -55 6 50 c3 34
5 18 5 -48 1 -131 10 -135 12 -5 1 56 4 104 6 107 7 6 4 -230 -5 -374 l-6
-120 -4 130 -4 130 -6 -125 -6 -125 -4 115 -4 115 -6 -115 -6 -115 -4 105 -4
105 -6 -105 c-3 -58 -7 -94 -9 -80 -2 18 -5 20 -8 8 -5 -20 -5 -20 -27 -12
-14 5 -16 35 -16 229 0 170 3 224 13 228 9 3 13 -39 17 -177 l6 -181 4 185z
m119 140 c1 27 4 31 11 20 5 -8 10 -10 10 -4 0 6 7 11 15 11 13 0 15 -19 14
-115 0 -62 2 -116 5 -120 3 -3 6 51 7 119 1 78 4 115 9 99 8 -24 8 -24 9 -2 1
19 6 22 32 20 17 -1 33 -6 35 -10 5 -8 6 -480 1 -485 -2 -1 -20 0 -40 4 -37 6
-37 6 -39 57 l-1 51 -6 -50 c-3 -28 -12 -51 -18 -53 -10 -1 -14 23 -15 90 l-2
93 -6 -95 -6 -95 -4 125 -4 125 -6 -120 c-5 -98 -7 -108 -10 -55 l-3 65 -8
-65 c-5 -42 -6 -13 -3 80 2 80 5 192 5 250 1 76 4 94 9 65 l7 -40 2 35z m172
-438 c-11 -61 -14 226 -3 373 6 89 7 77 10 -113 1 -117 -2 -234 -7 -260z m363
462 c14 -5 16 -44 16 -335 l0 -329 -37 0 -36 0 6 233 c4 127 7 278 7 335 0
106 3 112 44 96z m150 -4 l26 -10 0 -283 0 -283 -28 -27 c-15 -15 -35 -27 -44
-27 -39 0 -40 18 -33 329 7 264 10 301 24 304 27 7 29 7 55 -3z m154 -283 c2
-288 2 -289 -20 -313 -25 -26 -62 -32 -75 -11 -8 13 -5 596 4 610 3 4 24 7 46
5 l42 -3 3 -288z m-397 241 c2 -13 4 -158 4 -323 l0 -300 -25 0 -25 0 2 303
c2 287 8 342 32 342 5 0 10 -10 12 -22z m-81 -321 c0 -173 -3 -317 -6 -320 -4
-3 -16 -1 -27 4 -19 11 -19 19 -14 309 3 164 8 303 12 309 3 6 13 11 21 11 12
0 14 -47 14 -313z m-76 281 c8 -30 8 -572 0 -592 -3 -9 -15 -16 -27 -16 -20 0
-20 2 -14 306 4 168 10 310 13 315 9 16 21 10 28 -13z m-574 -389 c0 -169 -4
-269 -10 -269 -16 0 -19 32 -25 283 -5 177 -3 242 5 252 7 8 16 12 21 9 5 -3
9 -126 9 -275z m-50 -21 c0 -214 -2 -258 -14 -258 -8 0 -17 7 -20 16 -9 22 -7
519 1 528 4 4 13 -1 20 -10 10 -13 13 -82 13 -276z m-60 6 c0 -208 -3 -265
-12 -262 -19 7 -36 502 -18 523 7 8 16 12 21 9 5 -3 9 -125 9 -270z m-60 -9
c0 -228 -5 -287 -24 -257 -3 5 -8 118 -11 251 -5 181 -4 246 5 256 7 8 16 12
21 9 5 -3 9 -119 9 -259z m-59 223 c0 -27 0 -467 0 -487 -1 -12 -4 -12 -13 -3
-13 13 -26 467 -15 497 9 23 27 18 28 -7z m-47 -5 c11 -37 1 -486 -10 -490 -6
-2 -14 6 -18 19 -8 31 -8 473 1 481 11 12 21 8 27 -10z m-54 -249 c0 -192 -3
-245 -12 -242 -15 5 -29 451 -15 481 21 45 27 -8 27 -239z m-100 -15 c0 -188
-3 -240 -12 -237 -10 4 -14 61 -16 234 -2 231 0 260 18 249 6 -4 10 -96 10
-246z m50 5 c0 -192 -3 -245 -12 -242 -10 4 -14 64 -16 246 -2 211 0 242 13
242 13 0 15 -33 15 -246z m4138 200 c-6 -5 -449 -74 -477 -74 -27 0 -31 50 -3
51 9 0 121 15 247 33 222 31 230 32 233 13 2 -10 2 -21 0 -23z m-4237 -11 c2
-21 2 -127 0 -236 -2 -143 -6 -197 -15 -194 -11 4 -22 426 -12 454 10 25 24
12 27 -24z m-85 -223 c-3 -113 -6 -211 -6 -218 0 -7 -4 -10 -10 -7 -11 7 -14
457 -3 469 19 18 24 -56 19 -244z m42 12 c-2 -140 -7 -222 -13 -222 -11 0 -20
423 -10 449 4 9 9 11 16 4 6 -6 8 -95 7 -231z m-88 -11 c0 -134 -4 -232 -9
-236 -17 -10 -21 55 -17 255 5 227 3 210 16 210 6 0 10 -83 10 -229z m-40 -5
c0 -133 -4 -217 -10 -221 -12 -8 -11 -19 -14 200 -2 189 1 235 15 235 5 0 9
-96 9 -214z m-80 118 c0 -48 -4 -73 -10 -69 -5 3 -10 40 -10 81 0 48 4 73 10
69 6 -3 10 -40 10 -81z m29 9 c-1 -69 -2 -73 -10 -38 -11 56 -11 115 1 115 6
0 10 -32 9 -77z m-99 -66 c0 -152 -11 -310 -21 -300 -5 5 -10 92 -12 193 l-2
185 -3 -192 c-1 -121 -6 -193 -12 -193 -6 0 -10 77 -10 210 0 133 4 210 10
210 6 0 10 -6 10 -12 0 -7 5 -5 11 5 20 35 29 4 29 -106z m30 -87 c0 -133 -4
-210 -10 -210 -6 0 -10 77 -10 210 0 133 4 210 10 210 6 0 10 -77 10 -210z
m-100 -8 c0 -108 -4 -203 -9 -210 -9 -14 -22 383 -14 405 16 41 23 -21 23
-195z m-40 -7 c0 -130 -4 -205 -10 -205 -6 0 -10 75 -10 205 0 130 4 205 10
205 6 0 10 -75 10 -205z m-38 -7 c-2 -106 -5 -194 -7 -197 -3 -2 -5 87 -5 199
0 112 3 200 7 196 4 -4 6 -93 5 -198z m-32 -10 c0 -111 -3 -198 -7 -194 -4 4
-8 71 -9 149 -1 78 -3 147 -5 152 -2 6 -6 -62 -9 -150 l-6 -160 -2 198 c-2
176 4 227 21 185 3 -8 6 -6 6 5 1 9 3 17 6 17 3 0 5 -91 5 -202z m-98 -118
c-9 -78 -9 -69 -11 101 0 102 2 189 7 193 11 12 14 -197 4 -294z m38 115 c0
-117 -4 -185 -10 -185 -6 0 -10 66 -10 178 0 157 3 192 17 192 2 0 3 -83 3
-185z m-73 -102 c-1 -54 -3 -12 -3 92 0 105 2 149 3 98 2 -51 2 -136 0 -190z
m-39 214 c1 23 7 45 12 48 6 4 10 -36 10 -111 0 -74 -4 -114 -9 -109 -6 6 -11
30 -14 55 -2 25 -4 -2 -5 -60 -1 -71 1 -100 8 -90 8 12 10 11 10 -6 0 -12 -6
-21 -15 -21 -13 0 -15 26 -13 176 1 112 4 158 8 126 l7 -50 1 42z m-47 34 c5
8 8 -55 7 -151 l-2 -165 -6 145 -6 145 -2 -152 c-3 -199 -21 -207 -24 -10 -2
135 -2 138 -8 52 l-6 -90 -2 113 c-1 68 2 111 7 107 5 -3 13 0 17 7 6 9 9 9
12 -1 4 -11 6 -11 13 0z m3044 -79 c-3 -3 -36 -9 -73 -13 -72 -7 -82 -3 -82
39 0 27 8 31 91 40 l64 7 3 -33 c2 -19 1 -37 -3 -40z m-3157 -36 l-2 -101 -5
80 c-5 73 -6 68 -11 -65 l-6 -145 -2 166 c-2 141 0 166 13 166 12 0 15 -17 13
-101z m19 -138 c-1 -46 -3 -9 -3 82 0 91 2 128 3 83 2 -46 2 -120 0 -165z m20
210 c-3 -8 -6 -5 -6 6 -1 11 2 17 5 13 3 -3 4 -12 1 -19z m1347 6 c3 -9 6 -55
6 -103 0 -91 -11 -121 -37 -100 -14 12 -20 199 -6 212 11 12 31 7 37 -9z m66
-17 c0 -13 3 -58 6 -100 l7 -77 -25 0 c-32 0 -38 15 -38 100 0 81 6 100 31
100 13 0 19 -7 19 -23z m68 -76 c4 -105 -1 -120 -28 -96 -17 15 -20 31 -20
102 0 82 1 84 23 81 21 -3 22 -9 25 -87z m72 -11 c0 -87 -6 -103 -31 -89 -16
8 -19 21 -19 82 0 77 12 106 37 86 8 -8 13 -35 13 -79z m-972 -39 l3 -92 -28
3 c-28 3 -28 3 -31 87 -4 103 0 113 30 102 21 -8 23 -15 26 -100z m1030 37
c-2 -57 -6 -73 -18 -73 -12 0 -16 16 -18 73 -3 67 -2 72 18 72 20 0 21 -5 18
-72z m80 -1 c3 -56 2 -58 -20 -55 -19 2 -23 10 -26 47 -4 54 3 73 25 69 14 -2
19 -15 21 -61z m60 -5 c2 -40 0 -52 -11 -52 -18 0 -27 21 -27 64 0 70 34 59
38 -12z m-1212 -169 c-11 -11 -19 6 -11 24 8 17 8 17 12 0 3 -10 2 -21 -1 -24z
m44 6 c0 -11 -4 -17 -10 -14 -5 3 -10 13 -10 21 0 8 5 14 10 14 6 0 10 -9 10
-21z m-553 -21 c-3 -8 -6 -5 -6 6 -1 11 2 17 5 13 3 -3 4 -12 1 -19z m-137
-92 c0 -8 -7 -16 -15 -20 -10 -4 -15 1 -15 14 0 11 7 20 15 20 8 0 15 -6 15
-14z"/>
<path d="M2520 2876 c0 -2 9 -6 20 -9 11 -3 18 -1 14 4 -5 9 -34 13 -34 5z"/>
<path d="M1040 2175 c-25 -7 -71 -21 -103 -30 l-57 -16 2 -577 3 -576 105 -22
c58 -13 113 -23 123 -23 19 -1 19 71 3 1179 -1 85 -4 87 -76 65z m38 -102 c1
-20 -5 -47 -13 -59 -11 -17 -12 -24 -2 -27 8 -3 4 -11 -11 -22 -23 -17 -23
-22 -21 -149 1 -119 3 -132 22 -147 30 -24 33 -100 5 -115 -13 -7 -22 -24 -24
-42 -3 -27 0 -33 21 -38 24 -6 25 -9 25 -95 l0 -89 -64 0 -64 0 -6 93 c-3 50
-8 228 -11 393 -5 333 -9 314 58 314 18 0 41 7 51 15 25 19 32 13 34 -32z
m-141 -875 c-3 -8 -6 -5 -6 6 -1 11 2 17 5 13 3 -3 4 -12 1 -19z"/>
<path d="M4012 2308 c-16 -16 -15 -31 0 -22 6 4 2 -8 -10 -28 -21 -33 -22 -47
-22 -242 l0 -206 28 -1 c30 -1 55 1 60 6 2 2 3 99 3 217 -1 178 -4 215 -17
224 -8 7 -17 22 -19 34 -6 30 -9 32 -23 18z"/>
<path d="M3954 2025 c0 -126 2 -177 3 -112 2 65 2 168 0 230 -1 62 -3 9 -3
-118z"/>
<path d="M3914 1695 c0 -154 2 -216 3 -137 2 79 2 205 0 280 -1 75 -3 11 -3
-143z"/>
<path d="M4093 1880 c0 -41 2 -58 4 -37 2 20 2 54 0 75 -2 20 -4 3 -4 -38z"/>
<path d="M3954 1640 c0 -69 1 -97 3 -62 2 34 2 90 0 125 -2 34 -3 6 -3 -63z"/>
<path d="M3977 1690 c-4 -17 1 -131 6 -137 1 0 24 1 50 4 l48 6 -3 71 -3 71
-46 3 c-40 3 -47 0 -52 -18z"/>
<path d="M4094 1205 c0 -137 2 -195 3 -128 2 67 2 179 0 250 -1 70 -3 16 -3
-122z"/>
<path d="M3953 1395 c0 -27 2 -38 4 -22 2 15 2 37 0 50 -2 12 -4 0 -4 -28z"/>
<path d="M3977 1363 c-10 -74 -18 -391 -9 -368 6 16 16 20 57 20 l50 0 0 195
0 195 -46 3 -46 3 -6 -48z"/>
<path d="M3693 735 c0 -22 2 -30 4 -17 2 12 2 30 0 40 -3 9 -5 -1 -4 -23z"/>
<path d="M4108 733 c7 -3 16 -2 19 1 4 3 -2 6 -13 5 -11 0 -14 -3 -6 -6z"/>
<path d="M3683 585 c0 -27 2 -38 4 -22 2 15 2 37 0 50 -2 12 -4 0 -4 -28z"/>
<path d="M3673 425 c0 -27 2 -38 4 -22 2 15 2 37 0 50 -2 12 -4 0 -4 -28z"/>
<path d="M3788 343 c6 -2 18 -2 25 0 6 3 1 5 -13 5 -14 0 -19 -2 -12 -5z"/>
<path d="M3800 310 c0 -5 5 -10 10 -10 6 0 10 5 10 10 0 6 -4 10 -10 10 -5 0
-10 -4 -10 -10z"/>
<path d="M2065 2259 c-16 -10 -40 -19 -52 -19 l-23 0 0 -255 0 -255 43 0 c23
0 79 -3 125 -7 l82 -6 -2 254 -3 253 -34 7 c-18 4 -46 16 -62 28 -34 25 -35
25 -74 0z m35 -24 c-6 -8 -28 -20 -47 -27 l-35 -13 4 -206 c1 -114 5 -210 8
-212 3 -3 43 -6 90 -8 l85 -4 3 205 2 205 -35 19 c-42 23 -39 30 9 21 l36 -7
0 -234 0 -234 -74 0 c-40 0 -88 3 -105 6 l-31 7 0 234 0 234 30 6 c17 3 33 10
36 14 3 5 12 9 21 9 12 0 13 -3 3 -15z"/>
<path d="M1990 1521 l0 -150 115 -3 c64 -2 120 -1 125 0 6 2 10 64 10 153 l0
149 -125 0 -125 0 0 -149z m228 -3 l-3 -133 -102 -3 -103 -3 0 135 0 136 105
0 106 0 -3 -132z"/>
<path d="M2037 1624 c-4 -4 -7 -53 -7 -110 0 -119 -4 -114 106 -114 l74 0 0
110 0 110 -69 0 c-38 0 -76 2 -83 5 -8 3 -17 2 -21 -1z"/>
<path d="M5350 2200 c-6 -11 -8 -20 -5 -20 3 0 -1 -12 -10 -27 -13 -24 -14
-52 -8 -198 l8 -170 28 -1 c50 -2 55 13 51 143 -6 161 -14 243 -25 243 -5 0
-9 9 -9 19 0 29 -17 35 -30 11z"/>
<path d="M5281 2154 c0 -11 3 -14 6 -6 3 7 2 16 -1 19 -3 4 -6 -2 -5 -13z"/>
<path d="M5421 2144 c0 -11 3 -14 6 -6 3 7 2 16 -1 19 -3 4 -6 -2 -5 -13z"/>
<path d="M5284 2000 c0 -74 1 -105 3 -67 2 37 2 97 0 135 -2 37 -3 6 -3 -68z"/>
<path d="M5303 2050 c0 -47 2 -66 4 -42 2 23 2 61 0 85 -2 23 -4 4 -4 -43z"/>
<path d="M5432 1880 c0 -14 2 -19 5 -12 2 6 2 18 0 25 -3 6 -5 1 -5 -13z"/>
<path d="M5420 1741 c0 -6 4 -13 10 -16 6 -3 7 1 4 9 -7 18 -14 21 -14 7z"/>
<path d="M5337 1703 c-11 -10 -8 -121 3 -128 6 -4 28 -4 50 0 l38 6 4 63 3 63
-46 2 c-25 1 -48 -2 -52 -6z"/>
<path d="M5313 1605 c0 -38 2 -53 4 -32 2 20 2 52 0 70 -2 17 -4 1 -4 -38z"/>
<path d="M5438 1453 c5 -21 7 -23 10 -9 2 10 0 22 -6 28 -6 6 -7 0 -4 -19z"/>
<path d="M5339 1443 c-3 -12 -8 -69 -13 -138 -4 -41 -2 -52 3 -35 6 18 9 -2
10 -67 l1 -93 45 0 46 0 -3 168 -3 167 -42 3 c-24 2 -44 0 -44 -5z"/>
<path d="M5294 1305 c0 -66 1 -92 3 -57 2 34 2 88 0 120 -2 31 -3 3 -3 -63z"/>
<path d="M1954 940 c0 -107 2 -151 3 -97 2 53 2 141 0 195 -1 53 -3 9 -3 -98z"/>
<path d="M2221 1144 c0 -11 3 -14 6 -6 3 7 2 16 -1 19 -3 4 -6 -2 -5 -13z"/>
<path d="M2111 1114 c0 -11 3 -14 6 -6 3 7 2 16 -1 19 -3 4 -6 -2 -5 -13z"/>
<path d="M2172 1030 c0 -14 2 -19 5 -12 2 6 2 18 0 25 -3 6 -5 1 -5 -13z"/>
<path d="M2121 924 c0 -11 3 -14 6 -6 3 7 2 16 -1 19 -3 4 -6 -2 -5 -13z"/>
<path d="M2143 840 c0 -41 2 -58 4 -37 2 20 2 54 0 75 -2 20 -4 3 -4 -38z"/>
<path d="M2233 755 c0 -38 2 -53 4 -32 2 20 2 52 0 70 -2 17 -4 1 -4 -38z"/>
<path d="M2212 780 c0 -19 2 -27 5 -17 2 9 2 25 0 35 -3 9 -5 1 -5 -18z"/>
<path d="M4960 3762 c0 -5 7 -24 16 -42 11 -21 13 -34 6 -39 -6 -3 -18 -35
-26 -71 -24 -93 -35 -118 -58 -126 -30 -9 -15 -28 33 -40 55 -14 63 -10 44 25
-11 22 -12 37 -3 67 6 22 13 59 17 84 l7 45 44 -130 c43 -125 46 -130 78 -139
40 -11 48 -2 58 60 5 33 -2 67 -33 160 l-38 118 -40 12 c-72 21 -105 26 -105
16z"/>
<path d="M1379 3697 c-19 -12 -33 -27 -32 -32 1 -6 22 -12 45 -15 24 -3 49 -9
56 -13 26 -17 32 4 12 44 -24 45 -35 47 -81 16z"/>
<path d="M5170 3698 c0 -8 5 -19 12 -26 9 -9 9 -21 -1 -51 -11 -39 -7 -91 8
-91 5 0 13 25 20 55 9 39 20 60 39 74 33 24 23 37 -35 47 -34 5 -43 3 -43 -8z"/>
<path d="M1780 3653 c0 -16 -9 -43 -21 -62 -29 -47 -12 -57 44 -25 26 14 47
28 47 30 0 12 -52 84 -60 84 -6 0 -10 -12 -10 -27z"/>
<path d="M1275 3639 c-22 -11 -46 -27 -54 -34 -14 -14 -7 -35 12 -35 12 0 23
-16 88 -135 43 -78 46 -93 23 -102 -11 -4 -48 27 -124 102 l-108 108 -45 -26
c-42 -25 -45 -29 -37 -54 25 -79 52 -236 46 -268 -8 -41 2 -44 50 -14 39 24
43 39 14 46 -11 3 -23 17 -26 32 -3 14 -13 50 -21 79 -8 30 -13 55 -11 58 3 2
20 -12 39 -32 31 -33 33 -36 17 -48 -16 -12 -25 -46 -13 -46 3 0 17 7 30 16
20 13 28 14 40 4 9 -7 13 -21 10 -31 -10 -31 25 -23 91 19 32 21 77 47 99 59
108 56 127 75 86 86 -16 4 -61 72 -61 92 0 10 36 5 48 -7 9 -9 15 -9 24 0 9 9
4 23 -18 58 -35 57 -54 67 -54 27 0 -59 -16 -58 -52 3 -18 31 -38 59 -43 61
-6 2 -28 -6 -50 -18z"/>
<path d="M5388 3633 c-1 -10 -2 -54 -2 -98 -1 -69 -4 -80 -19 -83 -10 -2 -25
-1 -34 2 -12 5 -11 13 11 50 25 43 34 86 19 86 -5 0 -32 -41 -61 -91 -34 -57
-62 -93 -78 -99 -13 -5 -24 -14 -24 -19 0 -11 54 -31 83 -31 16 0 18 5 13 26
-4 14 -4 34 -1 43 5 17 8 17 45 -1 39 -20 54 -52 28 -60 -27 -9 4 -37 54 -47
29 -7 64 -15 77 -18 21 -5 23 -3 18 18 -3 13 -7 85 -8 159 -1 74 -4 141 -6
147 -5 13 -63 33 -95 33 -10 0 -19 -8 -20 -17z"/>
<path d="M870 3400 c-6 -11 -21 -20 -34 -20 -28 0 -36 -8 -29 -26 3 -8 19 -14
38 -14 18 0 44 -9 58 -20 36 -29 51 -26 42 8 -8 33 -43 92 -55 92 -5 0 -14 -9
-20 -20z"/>
<path d="M757 3342 c-30 -33 -49 -94 -43 -134 18 -114 117 -184 210 -148 33
12 33 28 2 40 -32 12 -127 173 -129 219 -2 40 -17 49 -40 23z"/>
<path d="M986 3204 c-3 -9 -6 -26 -6 -39 0 -12 -7 -28 -15 -35 -21 -17 -19
-40 4 -40 22 0 34 14 49 58 16 48 -15 101 -32 56z"/>
<path d="M388 3133 c-59 -36 -72 -57 -40 -65 26 -7 132 -199 125 -226 -8 -31
9 -28 76 11 31 19 77 46 103 61 l48 27 -19 38 c-23 45 -50 71 -52 50 -1 -8 0
-22 1 -33 2 -25 -20 -76 -34 -76 -16 0 -121 188 -121 219 -1 36 -21 35 -87 -6z"/>
<path d="M243 3044 c-49 -29 -50 -59 -2 -49 17 4 39 0 58 -9 42 -22 49 -4 17
45 -15 21 -27 39 -29 38 -1 -1 -21 -12 -44 -25z"/>
<path d="M131 2977 c-60 -36 -72 -52 -43 -59 23 -6 132 -193 132 -226 0 -12 4
-22 10 -22 21 0 110 56 110 69 0 8 -13 36 -30 63 -34 54 -38 73 -14 64 36 -14
64 -18 64 -8 0 5 -12 30 -26 56 -30 53 -54 61 -54 17 0 -47 -18 -46 -47 4 -49
81 -42 79 -102 42z"/>
<path d="M387 2873 c-4 -3 -7 -20 -7 -36 0 -17 -7 -38 -16 -48 -9 -10 -14 -25
-10 -34 5 -14 9 -14 33 -1 67 35 69 38 43 84 -24 42 -31 48 -43 35z"/>
<path d="M370 499 c0 -5 5 -7 10 -4 6 3 10 8 10 11 0 2 -4 4 -10 4 -5 0 -10
-5 -10 -11z"/>
<path d="M6220 500 c-20 -6 -21 -8 -5 -8 11 0 29 3 40 8 25 11 -1 11 -35 0z"/>
<path d="M6143 483 c9 -2 23 -2 30 0 6 3 -1 5 -18 5 -16 0 -22 -2 -12 -5z"/>
<path d="M6088 473 c6 -2 18 -2 25 0 6 3 1 5 -13 5 -14 0 -19 -2 -12 -5z"/>
<path d="M6038 463 c7 -3 16 -2 19 1 4 3 -2 6 -13 5 -11 0 -14 -3 -6 -6z"/>
<path d="M5968 453 c6 -2 18 -2 25 0 6 3 1 5 -13 5 -14 0 -19 -2 -12 -5z"/>
<path d="M5918 443 c6 -2 18 -2 25 0 6 3 1 5 -13 5 -14 0 -19 -2 -12 -5z"/>
<path d="M5868 433 c6 -2 18 -2 25 0 6 3 1 5 -13 5 -14 0 -19 -2 -12 -5z"/>
<path d="M413 380 c0 -30 2 -43 4 -27 2 15 2 39 0 55 -2 15 -4 2 -4 -28z"/>
<path d="M5803 423 c9 -2 23 -2 30 0 6 3 -1 5 -18 5 -16 0 -22 -2 -12 -5z"/>
<path d="M5748 413 c6 -2 18 -2 25 0 6 3 1 5 -13 5 -14 0 -19 -2 -12 -5z"/>
<path d="M5568 383 c7 -3 16 -2 19 1 4 3 -2 6 -13 5 -11 0 -14 -3 -6 -6z"/>
<path d="M5468 363 c7 -3 16 -2 19 1 4 3 -2 6 -13 5 -11 0 -14 -3 -6 -6z"/>
<path d="M5418 353 c7 -3 16 -2 19 1 4 3 -2 6 -13 5 -11 0 -14 -3 -6 -6z"/>
<path d="M4328 113 c7 -3 16 -2 19 1 4 3 -2 6 -13 5 -11 0 -14 -3 -6 -6z"/>
<path d="M4268 103 c7 -3 16 -2 19 1 4 3 -2 6 -13 5 -11 0 -14 -3 -6 -6z"/>
<path d="M4068 73 c6 -2 18 -2 25 0 6 3 1 5 -13 5 -14 0 -19 -2 -12 -5z"/>
<path d="M3988 63 c6 -2 18 -2 25 0 6 3 1 5 -13 5 -14 0 -19 -2 -12 -5z"/>
<path d="M3918 53 c6 -2 18 -2 25 0 6 3 1 5 -13 5 -14 0 -19 -2 -12 -5z"/>
<path d="M3823 43 c9 -2 25 -2 35 0 9 3 1 5 -18 5 -19 0 -27 -2 -17 -5z"/>
<path d="M3718 33 c12 -2 32 -2 45 0 12 2 2 4 -23 4 -25 0 -35 -2 -22 -4z"/>
<path d="M3049 22 c-36 -2 -333 -6 -660 -11 l-594 -8 505 0 c278 0 656 3 840
6 310 6 322 7 155 11 -99 3 -210 4 -246 2z"/>
<path d="M3588 23 c12 -2 30 -2 40 0 9 3 -1 5 -23 4 -22 0 -30 -2 -17 -4z"/>
</g>
</svg>
