<?xml version="1.0" standalone="no"?>
<!DOCTYPE svg PUBLIC "-//W3C//DTD SVG 20010904//EN"
 "http://www.w3.org/TR/2001/REC-SVG-20010904/DTD/svg10.dtd">
<svg version="1.0" xmlns="http://www.w3.org/2000/svg"
 width="960.000000pt" height="960.000000pt" viewBox="0 0 960.000000 960.000000"
 preserveAspectRatio="xMidYMid meet">

<g transform="translate(0.000000,960.000000) scale(0.100000,-0.100000)"
fill="#000000" stroke="none">
<path d="M4979 9201 c-145 -149 -254 -323 -308 -490 -69 -214 -51 -353 99
-736 125 -322 151 -437 135 -618 l-7 -87 -150 0 -150 0 7 108 c12 175 -17 338
-82 467 -45 88 -84 137 -227 285 -151 155 -190 213 -207 306 -21 114 33 344
120 510 l38 73 -56 -44 c-79 -61 -181 -170 -229 -244 -65 -100 -85 -162 -85
-261 1 -155 55 -256 217 -403 228 -207 289 -291 345 -472 21 -65 61 -275 61
-314 0 -16 -17 -19 -162 -24 -1035 -41 -2142 -352 -2489 -699 -111 -112 -121
-163 -121 -638 -1 -814 133 -1534 398 -2149 30 -69 53 -126 51 -127 -1 -1 -68
-20 -148 -43 -491 -138 -900 -321 -1155 -517 -94 -71 -240 -225 -283 -297 -64
-109 -84 -179 -85 -302 -1 -90 3 -122 22 -176 117 -341 554 -645 1263 -879
1098 -364 2756 -498 4244 -345 1390 144 2476 521 2855 991 236 294 209 606
-76 888 -121 120 -314 251 -503 342 -45 22 -81 41 -81 45 0 3 21 15 48 28 105
50 249 157 353 260 197 197 278 352 374 716 77 289 99 554 62 725 -36 165
-138 305 -268 369 -131 63 -139 64 -649 69 l-465 4 3 321 c5 376 -6 545 -39
608 -142 279 -856 574 -1738 719 -198 32 -474 65 -638 76 -57 4 -103 8 -103
10 0 2 7 46 16 96 33 186 5 374 -96 658 -139 389 -160 477 -160 669 0 226 52
450 135 581 14 22 22 40 18 40 -5 0 -51 -44 -104 -99z m-105 -2070 c7 -10 -41
-299 -85 -515 -16 -82 -28 -151 -25 -153 12 -12 173 231 245 370 27 54 67 141
87 194 l37 96 116 -7 c321 -18 782 -89 1116 -172 319 -79 545 -157 779 -266
239 -112 368 -213 395 -310 15 -53 27 -619 16 -769 l-7 -107 -43 -6 c-84 -13
-177 -95 -206 -183 -13 -40 -8 -158 7 -173 8 -8 23 8 52 53 63 96 126 153 218
198 l81 39 429 -15 c467 -16 562 -24 631 -55 225 -100 306 -406 212 -810 -33
-141 -137 -438 -191 -545 -67 -132 -119 -205 -213 -293 -291 -277 -785 -437
-1463 -474 l-223 -12 -89 -112 c-301 -377 -643 -635 -1070 -807 -235 -96 -358
-120 -675 -138 -255 -14 -760 -6 -867 15 -96 18 -253 66 -380 117 -1067 425
-1719 1472 -1873 3009 -27 268 -37 603 -25 844 12 247 17 264 100 340 348 314
1433 607 2383 643 l169 6 -6 -124 c-6 -119 -5 -122 9 -84 9 22 25 76 36 120
11 44 23 83 25 87 7 11 292 10 298 -1z m-2603 -3654 c12 -23 44 -79 71 -125
28 -46 48 -85 47 -87 -2 -2 -62 -24 -134 -50 -346 -124 -561 -268 -634 -425
-36 -78 -36 -182 0 -260 155 -335 962 -607 2119 -714 360 -34 535 -41 1045
-41 604 1 905 18 1385 81 965 127 1620 377 1758 671 38 82 38 184 0 265 -49
106 -160 203 -338 297 -51 27 -88 51 -84 54 5 2 32 8 59 11 89 13 267 55 387
93 l118 36 162 -80 c820 -406 914 -871 263 -1301 -490 -324 -1398 -579 -2470
-691 -443 -47 -634 -55 -1235 -56 -588 0 -727 5 -1160 46 -1748 163 -3002 698
-3001 1280 0 142 64 262 217 409 205 197 550 377 1000 524 177 57 387 115 397
109 4 -2 17 -23 28 -46z m209 -338 c30 -55 222 -278 336 -389 307 -300 643
-502 1063 -640 246 -81 280 -85 766 -84 644 2 773 22 1113 170 219 96 442 230
632 380 114 91 338 316 434 437 l78 97 169 0 170 0 91 -35 c308 -119 508 -281
508 -412 0 -321 -885 -631 -2100 -737 -611 -54 -1331 -54 -1930 0 -791 70
-1408 212 -1793 411 -191 100 -307 221 -307 320 0 166 240 332 700 486 59 20
58 20 70 -4z"/>
<path d="M2595 6641 c-405 -106 -594 -240 -595 -424 0 -107 52 -184 184 -271
264 -176 767 -312 1431 -386 1541 -171 3304 49 3721 465 59 59 84 114 84 188
0 147 -140 273 -405 367 -87 30 -286 83 -292 77 -1 -2 34 -18 80 -36 212 -86
398 -202 461 -288 66 -89 55 -144 -45 -239 -62 -57 -128 -97 -247 -148 -97
-41 -102 -42 -102 -18 0 76 -282 158 -725 211 -1029 124 -2660 82 -3301 -85
-164 -42 -254 -96 -241 -144 7 -27 1 -26 -105 15 -191 74 -323 163 -366 247
-30 59 -25 95 22 159 68 92 213 183 451 281 156 64 153 71 -10 29z"/>
<path d="M2818 5565 c190 -88 603 -196 967 -251 158 -23 169 -24 895 -24 689
0 744 1 875 21 297 43 634 126 839 206 52 20 94 39 92 41 -2 2 -56 -8 -120
-23 -691 -155 -1704 -206 -2536 -129 -308 28 -663 85 -905 145 -66 16 -129 32
-140 34 -11 3 4 -6 33 -20z"/>
<path d="M7516 5068 c-3 -13 -14 -77 -26 -143 -60 -340 -181 -746 -341 -1141
-11 -29 -18 -32 -67 -38 -149 -18 -294 -154 -310 -291 -9 -82 1 -84 76 -14
167 158 251 204 392 214 355 26 753 117 962 222 111 55 210 147 251 233 51
107 108 344 128 534 13 119 1 240 -30 310 -24 55 -81 110 -130 124 -26 8 -171
12 -469 12 l-432 0 -4 -22z m882 -118 c52 -32 67 -78 66 -200 -2 -157 -80
-489 -142 -604 -75 -138 -333 -261 -693 -331 -120 -23 -349 -55 -349 -49 0 1
16 39 35 84 112 263 229 672 290 1023 l17 97 372 0 c354 0 372 -1 404 -20z"/>
<path d="M4534 5001 c-3 -39 -11 -71 -15 -71 -15 0 -10 -28 6 -34 8 -3 44 -8
80 -12 59 -6 65 -5 66 12 0 11 3 13 6 7 2 -7 12 -13 21 -14 11 0 12 -2 5 -6
-21 -8 -15 -20 15 -27 15 -3 36 -8 47 -11 19 -6 20 -2 16 87 -3 96 -8 108 -48
108 -22 0 -23 -4 -23 -66 0 -48 -3 -64 -12 -61 -13 4 -13 9 -2 62 l6 30 -16
-29 c-9 -15 -16 -36 -16 -45 0 -17 -18 -41 -31 -41 -3 0 -4 11 -1 25 5 31 -4
32 -28 3 -29 -36 -33 -16 -14 61 9 40 15 73 13 75 -2 2 -18 7 -36 10 l-32 7
-7 -70z"/>
<path d="M4288 5043 c-10 -2 -18 -13 -18 -24 0 -11 -4 -18 -9 -15 -4 3 -21 -6
-37 -19 -23 -19 -25 -25 -11 -25 9 0 17 -7 17 -15 0 -8 9 -29 20 -47 11 -18
20 -44 20 -57 0 -23 1 -23 23 -7 12 9 30 19 40 23 9 3 17 9 17 14 0 5 11 9 25
9 28 0 32 17 11 46 -16 21 -14 22 -31 -31 -7 -24 -29 -17 -42 12 -14 30 -9 43
9 25 17 -17 28 -15 28 4 0 16 -27 43 -42 44 -5 0 -8 -8 -8 -17 0 -16 -1 -16
-16 -1 -17 16 -13 48 5 48 5 0 16 -6 24 -14 9 -9 18 -11 28 -5 12 8 11 11 -3
20 -10 5 -18 17 -18 24 0 15 -2 16 -32 8z"/>
<path d="M4879 4905 c-7 -38 -16 -75 -20 -81 -12 -16 11 -34 43 -34 26 0 28 2
28 44 0 25 5 48 10 51 6 3 10 19 10 35 0 36 25 31 34 -6 10 -37 36 -31 36 9 0
33 0 33 -65 43 l-64 9 -12 -70z"/>
<path d="M4135 4930 c-3 -5 2 -18 11 -29 9 -10 23 -37 31 -58 7 -21 15 -40 16
-43 1 -3 -2 -6 -8 -8 -5 -2 -13 10 -16 26 -7 36 -40 92 -54 92 -5 0 -17 -6
-26 -13 -15 -11 -14 -16 7 -57 13 -25 29 -56 36 -70 6 -14 13 -27 15 -29 1 -2
16 8 32 22 17 14 35 27 41 29 6 2 13 19 16 39 5 31 1 41 -26 72 -31 36 -63 47
-75 27z"/>
<path d="M5041 4909 c-19 -26 -21 -33 -9 -47 29 -36 48 -81 38 -87 -19 -12 0
-23 28 -16 24 6 27 13 30 52 2 40 0 45 -29 62 -23 13 -29 21 -21 29 7 7 17 4
33 -11 25 -23 42 -23 47 0 2 11 -66 49 -89 49 -3 0 -15 -14 -28 -31z"/>
<path d="M4963 4893 c-15 -5 -18 -53 -4 -53 5 0 11 12 14 28 6 31 6 31 -10 25z"/>
<path d="M5190 4877 c-22 -11 -25 -20 -28 -72 -2 -58 -1 -61 31 -82 21 -14 48
-23 73 -23 24 0 34 3 26 9 -10 6 -10 10 3 21 21 18 22 138 0 147 -22 8 -27 0
-40 -64 -7 -36 -17 -57 -26 -58 -13 -2 -14 6 -6 59 5 33 14 64 21 68 19 13
-27 9 -54 -5z"/>
<path d="M5335 4847 c3 -7 1 -42 -4 -77 -10 -73 3 -110 40 -110 15 0 19 6 17
23 -4 32 12 120 24 135 8 9 6 16 -8 27 -24 18 -75 20 -69 2z"/>
<path d="M3963 4817 c-13 -5 -23 -14 -23 -19 0 -4 -8 -8 -18 -8 -38 0 -42 -20
-11 -70 16 -27 31 -62 32 -79 2 -36 24 -41 50 -11 15 18 15 24 3 60 -12 36
-12 39 1 28 12 -10 14 -8 11 17 -3 30 -28 48 -28 21 0 -14 -2 -14 -20 1 -28
24 -25 33 10 33 19 0 30 5 30 14 0 21 -12 25 -37 13z"/>
<path d="M4962 4818 c-18 -18 -15 -40 6 -36 9 2 18 13 20 26 4 24 -7 29 -26
10z"/>
<path d="M5001 4804 c-14 -31 -14 -30 22 -39 21 -6 27 -4 27 9 0 9 -4 16 -10
16 -5 0 -10 9 -10 20 0 28 -15 25 -29 -6z"/>
<path d="M5451 4798 c6 -66 -1 -95 -26 -108 -14 -7 -25 -17 -25 -22 0 -4 11
-8 25 -8 18 0 25 5 25 19 0 11 5 23 10 26 6 3 10 21 10 40 0 19 5 37 10 40 18
11 11 35 -10 35 -15 0 -20 -6 -19 -22z"/>
<path d="M5513 4782 c-1 -10 -9 -47 -18 -82 -16 -61 -16 -65 1 -77 10 -7 29
-13 42 -13 18 0 22 4 18 18 -3 9 3 50 13 90 l19 72 -23 0 c-13 0 -30 2 -37 5
-8 3 -14 -2 -15 -13z"/>
<path d="M4464 4781 l-171 -6 -71 -48 c-40 -27 -72 -52 -72 -58 0 -5 -6 -9
-14 -9 -7 0 -25 -11 -40 -25 -15 -14 -43 -32 -61 -40 -36 -14 -41 -18 -89 -60
-16 -14 -35 -25 -43 -25 -7 0 -16 -6 -19 -14 -3 -7 -35 -29 -72 -47 -37 -19
-75 -44 -85 -56 -9 -12 -30 -28 -45 -36 -60 -32 -217 -130 -220 -138 -2 -5
-10 -9 -17 -9 -7 0 -15 -3 -17 -7 -6 -14 -84 -63 -99 -63 -9 0 -36 -20 -62
-45 -61 -58 -62 -83 -4 -113 23 -12 53 -23 67 -24 l25 -3 2 -145 3 -145 -24
28 c-22 28 -23 28 -29 8 -5 -22 -27 -29 -27 -9 0 6 -7 3 -15 -8 -19 -25 -19
-71 0 -108 8 -15 16 -40 16 -55 1 -22 3 -20 8 9 13 67 22 -83 19 -313 -2 -119
-1 -213 0 -207 2 5 10 10 18 10 12 0 14 44 14 275 0 177 4 275 10 275 6 0 10
-102 10 -286 0 -157 -4 -283 -8 -280 -4 2 -8 -10 -9 -27 -1 -29 -1 -30 6 -7 5
16 7 -2 7 -50 -1 -74 -2 -75 -29 -78 -19 -2 -27 1 -27 11 0 17 -33 9 -97 -21
-54 -25 -34 -74 29 -71 19 1 17 3 -9 11 -18 6 -33 18 -33 26 0 12 16 13 103 9
288 -16 578 -29 622 -29 435 7 1124 23 1170 27 33 4 89 13 125 21 36 7 119 21
185 29 66 8 138 18 160 23 39 8 39 9 15 19 -14 6 -44 16 -68 22 -53 15 -47 26
17 35 27 4 76 15 108 26 61 20 133 26 133 11 0 -5 17 -9 38 -9 20 1 67 -5 105
-13 73 -14 104 -10 242 32 39 12 93 23 122 26 44 4 52 2 56 -14 4 -15 5 -15 6
4 1 22 -3 24 -179 87 -25 9 -60 16 -76 16 -17 0 -43 9 -57 20 -14 11 -36 20
-49 20 -31 0 -44 10 -51 40 -3 14 -7 232 -8 484 -1 411 1 461 15 472 9 6 16
17 16 25 0 7 10 23 23 34 13 11 32 38 44 60 l21 41 -52 12 c-38 9 -60 22 -85
49 -21 24 -41 37 -55 36 -15 -1 -16 0 -3 3 28 9 20 20 -25 33 -24 7 -51 17
-60 22 -10 5 -25 9 -33 9 -9 0 -27 7 -40 16 -15 10 -38 15 -60 12 -19 -2 -35
0 -35 4 0 4 -7 8 -15 8 -8 0 -30 9 -50 20 -20 11 -46 20 -60 20 -13 0 -26 4
-29 9 -3 5 -48 16 -98 26 -51 9 -102 22 -113 29 -11 7 -45 19 -75 27 -30 7
-65 19 -76 26 -12 8 -50 18 -85 24 -35 6 -77 17 -93 25 -16 8 -39 14 -52 14
-13 0 -26 5 -29 10 -3 6 -16 10 -28 10 -12 0 -40 7 -62 15 -22 8 -49 14 -60
13 -11 -1 -97 -4 -191 -7z m199 -18 c-7 -2 -19 -2 -25 0 -7 3 -2 5 12 5 14 0
19 -2 13 -5z m-278 -13 c3 -5 -1 -10 -10 -10 -9 0 -23 -6 -30 -14 -8 -8 -25
-11 -40 -9 -35 7 -42 23 -11 23 14 0 26 5 26 10 0 6 13 10 29 10 17 0 33 -4
36 -10z m95 0 c0 -5 -4 -10 -10 -10 -5 0 -10 -7 -10 -15 0 -8 -5 -15 -11 -15
-6 0 -17 7 -25 15 -12 12 -12 15 -2 15 10 0 9 3 -2 10 -11 7 -5 10 23 10 20 0
37 -4 37 -10z m93 3 c-7 -2 -19 -2 -25 0 -7 3 -2 5 12 5 14 0 19 -2 13 -5z
m175 -10 c-10 -2 -28 -2 -40 0 -13 2 -5 4 17 4 22 1 32 -1 23 -4z m-188 -13
c0 -13 -20 -13 -40 0 -12 8 -9 10 13 10 15 0 27 -4 27 -10z m103 3 c-7 -2 -21
-2 -30 0 -10 3 -4 5 12 5 17 0 24 -2 18 -5z m177 -13 c0 -5 -9 -10 -19 -10
-11 0 -23 5 -26 10 -4 6 5 10 19 10 14 0 26 -4 26 -10z m-213 -25 c-12 -12
-37 -10 -37 4 0 14 11 19 30 14 15 -4 16 -8 7 -18z m111 13 c-3 -7 -15 -14
-29 -15 -22 -2 -22 -2 -4 6 19 8 18 9 -5 13 -21 4 -20 5 8 7 23 1 32 -3 30
-11z m-325 -5 c-7 -2 -19 -2 -25 0 -7 3 -2 5 12 5 14 0 19 -2 13 -5z m117 0
c-8 -3 -17 -10 -20 -14 -3 -5 -17 -5 -30 -2 l-25 7 25 7 c31 9 72 10 50 2z
m281 -23 c17 -10 18 -13 4 -26 -12 -12 -21 -13 -43 -6 l-27 10 30 2 c18 2 23
4 12 7 -9 2 -15 9 -12 14 8 12 12 11 36 -1z m94 2 c6 -4 11 -15 11 -24 2 -20
-22 -24 -46 -8 -12 8 -10 10 10 10 25 1 25 1 3 10 -13 5 -23 12 -23 15 0 8 33
6 45 -3z m72 2 c-3 -3 -12 -4 -19 -1 -8 3 -5 6 6 6 11 1 17 -2 13 -5z m-412
-14 c18 -8 17 -9 -7 -9 -16 -1 -28 4 -28 9 0 12 8 12 35 0z m130 0 c8 -13 -15
-13 -35 0 -12 8 -11 10 7 10 12 0 25 -4 28 -10z m-20 -20 c3 -5 -3 -10 -14
-10 -11 0 -23 5 -26 10 -3 6 3 10 14 10 11 0 23 -4 26 -10z m318 3 c-7 -2 -21
-2 -30 0 -10 3 -4 5 12 5 17 0 24 -2 18 -5z m82 -13 c3 -5 -1 -10 -9 -10 -8 0
-18 5 -21 10 -3 6 1 10 9 10 8 0 18 -4 21 -10z m-295 -10 c8 -5 12 -11 9 -15
-8 -8 -69 6 -69 16 0 12 41 11 60 -1z m98 -7 c5 -18 -23 -16 -39 3 -11 14 -10
15 11 12 13 -1 25 -9 28 -15z m112 7 c11 -7 9 -11 -13 -19 -16 -6 -34 -11 -40
-11 -7 0 -6 -4 3 -10 12 -8 9 -10 -12 -10 -15 0 -29 4 -32 9 -7 10 17 21 46
21 17 0 18 3 8 15 -10 12 -9 15 6 15 11 0 26 -4 34 -10z m155 -10 c7 0 15 -7
19 -15 4 -12 -3 -15 -32 -14 -30 0 -33 2 -17 9 19 8 19 9 -3 9 -14 1 -20 5
-17 12 4 6 14 8 22 5 8 -3 21 -6 28 -6z m-85 -20 c-8 -5 -26 -10 -40 -10 -20
0 -22 2 -10 10 8 5 26 10 40 10 20 0 22 -2 10 -10z m-600 -25 c41 -9 103 -25
138 -36 35 -12 95 -24 135 -28 59 -5 72 -9 75 -24 3 -17 -1 -18 -45 -11 -26 3
-60 13 -75 20 -15 8 -50 14 -77 14 -28 0 -84 11 -125 25 -41 14 -84 25 -97 25
-12 0 -39 5 -60 11 -31 10 -44 9 -73 -5 -19 -9 -38 -21 -41 -26 -4 -6 -21 -17
-38 -26 -62 -29 -77 -39 -77 -46 0 -5 -7 -8 -15 -8 -9 0 -18 -7 -21 -15 -8
-20 32 -55 61 -55 13 0 28 -6 34 -14 7 -8 31 -16 54 -19 23 -3 62 -10 86 -17
28 -9 45 -10 50 -3 3 6 17 14 31 18 13 4 30 14 38 21 7 8 20 14 28 14 8 0 14
5 14 10 0 6 7 10 15 10 13 0 15 -63 15 -505 0 -290 -4 -505 -9 -505 -5 0 -12
7 -15 16 -3 9 -6 202 -6 430 0 361 -2 414 -15 414 -11 0 -15 -11 -15 -39 0
-30 -4 -40 -20 -44 -11 -3 -20 -12 -20 -21 0 -9 8 -16 20 -16 20 0 20 -7 20
-373 l0 -373 -29 -17 c-16 -9 -45 -17 -64 -17 l-35 0 4 118 c2 64 6 228 8 365
l4 247 -22 0 c-12 0 -26 -4 -32 -10 -5 -5 -37 -14 -69 -20 -33 -6 -77 -15 -97
-22 l-38 -11 0 -372 0 -371 -32 -11 c-18 -6 -53 -16 -78 -22 -25 -7 -58 -16
-75 -21 -16 -4 -52 -11 -80 -15 -27 -4 -57 -13 -65 -20 -8 -7 -28 -15 -45 -19
-87 -20 -103 -24 -135 -38 -20 -8 -58 -18 -85 -23 -28 -4 -57 -11 -66 -16 -14
-7 -16 16 -22 224 -10 409 -9 608 4 623 6 8 25 14 41 14 16 0 46 9 66 20 75
39 148 69 187 76 22 4 45 13 50 19 17 21 104 65 129 65 31 0 86 20 86 31 0 5
8 9 19 9 10 0 24 7 31 15 7 8 19 15 26 15 8 0 14 5 14 10 0 6 12 10 26 10 14
0 58 15 97 34 40 18 81 37 92 41 16 6 5 12 -50 31 -38 13 -82 24 -96 24 -17 0
-35 12 -54 34 -32 39 -51 38 -107 -5 -35 -28 -68 -38 -68 -21 0 15 31 52 44
52 16 0 136 60 154 78 7 6 22 12 33 12 11 0 30 11 43 25 13 13 43 34 67 45 51
24 124 23 249 -5z m853 8 c-7 -2 -21 -2 -30 0 -10 3 -4 5 12 5 17 0 24 -2 18
-5z m-273 -13 c11 -7 6 -10 -22 -10 -20 0 -40 5 -43 10 -8 13 45 13 65 0z m90
0 c0 -5 -7 -10 -15 -10 -8 0 -15 -7 -15 -15 0 -13 -4 -14 -22 -3 -20 11 -21
13 -5 16 9 2 15 8 12 13 -4 5 5 9 19 9 14 0 26 -4 26 -10z m120 0 c0 -5 -6
-10 -14 -10 -8 0 -16 -4 -18 -8 -1 -5 -14 -5 -28 -1 l-25 7 28 1 c16 1 26 5
22 11 -3 6 3 10 14 10 12 0 21 -4 21 -10z m110 -8 c-14 -2 -29 -7 -35 -12 -5
-4 -19 -4 -30 1 -17 7 -17 8 8 8 15 1 27 5 27 10 0 4 12 6 28 2 l27 -5 -25 -4z
m86 -17 c16 -12 17 -14 2 -15 -25 0 -49 11 -42 21 7 13 17 11 40 -6z m-241
-26 c5 -7 -5 -8 -32 -3 -51 9 -54 14 -10 14 20 0 39 -5 42 -11z m105 2 c0 -12
-39 -25 -47 -17 -4 3 2 6 13 7 15 1 13 3 -6 9 -24 8 -23 8 8 9 17 1 32 -3 32
-8z m85 -1 c4 -7 -3 -8 -22 -4 -38 9 -42 14 -10 14 14 0 29 -5 32 -10z m122
-6 c-3 -3 -12 -4 -19 -1 -8 3 -5 6 6 6 11 1 17 -2 13 -5z m-157 -38 c0 -2 -11
-1 -25 2 -14 2 -22 8 -19 13 4 8 44 -6 44 -15z m196 14 c8 0 14 -4 14 -8 0 -5
-13 -7 -30 -4 -16 2 -30 9 -30 14 0 6 7 7 16 4 9 -3 22 -6 30 -6z m-696 -10
c0 -5 -10 -10 -22 -10 -19 0 -20 2 -8 10 19 13 30 13 30 0z m588 3 c-10 -2
-26 -2 -35 0 -10 3 -2 5 17 5 19 0 27 -2 18 -5z m189 1 c-3 -3 -12 -4 -19 -1
-8 3 -5 6 6 6 11 1 17 -2 13 -5z m-644 -33 c26 -6 56 -11 67 -11 11 0 20 -4
20 -10 0 -5 11 -10 25 -10 14 0 25 -4 25 -10 0 -5 -11 -9 -25 -8 -14 1 -25 6
-25 10 0 4 -15 8 -32 8 -29 1 -73 11 -145 35 -35 11 -27 24 10 15 17 -4 53
-13 80 -19z m564 3 c-3 -3 -12 -4 -19 -1 -8 3 -5 6 6 6 11 1 17 -2 13 -5z
m-50 -10 c-3 -3 -12 -4 -19 -1 -8 3 -5 6 6 6 11 1 17 -2 13 -5z m83 -4 c-12
-8 -12 -10 -1 -10 8 0 12 -3 8 -6 -3 -4 -14 -3 -24 0 -15 6 -15 8 -3 16 8 6
20 10 25 10 6 0 3 -5 -5 -10z m-753 -87 c1 -32 0 -52 -3 -45 -9 19 -24 14 -24
-7 0 -10 6 -21 14 -24 8 -3 15 -29 19 -67 8 -96 28 -99 32 -4 1 33 7 59 15 64
20 12 5 39 -19 33 -20 -5 -21 -1 -21 61 0 81 19 89 22 9 l2 -58 3 53 c2 28 9
52 14 52 7 0 8 -18 4 -50 l-7 -50 41 0 c29 0 41 -4 42 -15 1 -8 2 -21 3 -27 1
-7 -2 -18 -6 -24 -5 -6 -5 -22 0 -35 13 -35 3 -122 -13 -115 -7 2 -33 8 -59
11 l-46 7 0 -361 0 -361 -172 2 -173 3 -3 368 -2 367 56 0 c54 0 55 0 52 27
-3 25 -9 29 -53 39 l-50 10 0 90 0 89 45 -4 c25 -2 54 -8 64 -13 10 -6 46 -14
80 -19 34 -5 73 -11 89 -15 27 -6 27 -6 27 42 0 69 22 42 27 -33z m873 73 c0
-2 -9 -6 -20 -9 -11 -3 -20 -1 -20 4 0 5 9 9 20 9 11 0 20 -2 20 -4z m-404
-36 c49 -16 106 -30 126 -30 20 0 39 -4 42 -9 6 -9 49 -19 136 -31 126 -17
280 -57 280 -72 0 -9 -41 -4 -115 14 -102 24 -225 50 -280 58 -33 5 -80 14
-105 20 -25 6 -61 13 -80 16 -19 3 -57 13 -85 21 -27 9 -56 17 -62 19 -7 2
-13 8 -13 14 0 19 66 10 156 -20z m461 24 c-3 -3 -12 -4 -19 -1 -8 3 -5 6 6 6
11 1 17 -2 13 -5z m98 -34 c3 -5 -1 -10 -9 -10 -8 0 -18 5 -21 10 -3 6 1 10 9
10 8 0 18 -4 21 -10z m-735 -75 c0 -55 15 -75 23 -32 3 16 5 13 6 -10 1 -28
-2 -33 -23 -33 -21 0 -24 6 -31 55 -6 54 -2 75 16 75 5 0 9 -25 9 -55z m-37
-32 c3 -24 1 -43 -3 -43 -5 0 -11 15 -13 33 -4 32 -4 32 -5 -5 -1 -21 6 -52
18 -73 11 -19 17 -42 14 -50 -4 -8 -1 -22 6 -30 19 -23 5 -29 -42 -19 l-43 9
-1 103 c-1 101 -1 102 22 102 19 0 24 5 25 28 0 23 1 24 8 7 5 -11 11 -39 14
-62z m74 35 c-3 -7 -5 -2 -5 12 0 14 2 19 5 13 2 -7 2 -19 0 -25z m118 -55
c39 -8 102 -19 140 -23 81 -10 124 -19 255 -53 52 -13 121 -27 153 -31 l57 -7
0 -70 0 -69 -47 0 c-27 1 -75 7 -108 15 -33 8 -73 15 -88 15 l-28 0 3 -274 3
-275 -22 -4 -23 -4 0 248 c0 165 3 249 10 249 7 0 10 33 8 93 l-3 92 -32 3
-33 3 0 -94 c0 -76 3 -96 15 -101 13 -5 15 -39 13 -248 l-3 -243 -57 -3 -58
-3 0 40 c0 29 5 41 18 44 9 3 -18 5 -60 6 l-78 1 0 105 0 105 105 0 105 0 0
-99 c0 -95 -1 -100 -22 -104 -17 -3 -14 -5 10 -6 l32 -1 0 109 0 110 -52 3
-53 3 -3 48 c-2 37 0 47 12 47 13 0 16 14 16 75 l0 75 -40 0 -40 0 0 -75 c0
-60 3 -75 15 -75 11 0 15 -12 15 -50 l0 -50 -55 0 -55 0 0 -120 0 -120 55 6
55 7 0 -47 0 -46 -85 0 -85 0 0 300 0 300 -37 0 c-21 0 -48 3 -60 6 -24 7 -31
30 -11 36 7 3 12 23 13 47 1 23 7 46 13 50 7 4 12 16 11 27 -4 43 1 56 19 49
9 -4 49 -14 87 -22z m-1005 -528 l0 -325 -89 0 -90 0 -1 296 0 297 42 -6 c24
-4 62 -10 86 -15 23 -5 42 -6 42 -1 0 4 -23 11 -52 16 -28 4 -52 13 -52 18 -1
8 79 41 107 44 4 1 7 -145 7 -324z m700 185 l0 -140 -50 0 -50 0 0 140 0 140
50 0 50 0 0 -140z m133 122 c36 -3 47 -8 43 -19 -4 -10 -1 -11 14 -3 10 5 24
10 30 10 7 0 10 -132 8 -454 l-3 -454 33 5 c29 5 32 3 32 -19 0 -30 -26 -38
-119 -38 -82 0 -83 -2 -80 -111 l3 -94 -56 -3 c-39 -2 -57 1 -61 10 -7 21 5
158 14 153 4 -3 7 30 6 72 l-2 78 33 3 c41 4 65 -18 56 -53 -6 -23 -4 -25 17
-20 13 3 42 9 64 14 l40 9 -53 1 -54 1 4 180 c3 173 2 179 -17 182 -17 3 -19
9 -17 41 2 20 -1 37 -6 37 -12 0 -28 463 -17 480 4 6 14 8 24 4 9 -3 38 -9 64
-12z m739 -86 c4 -6 8 -176 8 -378 l0 -368 -32 6 c-53 9 -59 13 -56 31 2 15
-6 19 -47 21 -75 5 -88 42 -14 42 l39 0 0 130 0 130 -50 0 c-43 0 -50 3 -50
20 0 15 7 20 25 20 25 0 25 0 25 95 0 95 0 95 -25 95 -25 0 -25 0 -25 93 l0
93 98 -10 c53 -5 100 -14 104 -20z m-869 -283 c3 -54 1 -102 -3 -107 -5 -4 -6
-23 -3 -40 3 -21 0 -38 -9 -47 -8 -8 -18 -32 -21 -54 -17 -104 -26 -145 -37
-164 -8 -15 -7 -26 2 -40 14 -23 6 -36 -17 -28 -13 6 -15 44 -15 292 l0 285
49 0 48 0 6 -97z m-1636 -19 c3 -8 1 -25 -5 -37 l-11 -22 0 22 c-1 12 -4 28
-7 37 -3 9 -1 16 5 16 7 0 14 -7 18 -16z m-80 -31 c-3 -10 -5 -4 -5 12 0 17 2
24 5 18 2 -7 2 -21 0 -30z m43 7 c0 -16 -2 -30 -4 -30 -2 0 -6 14 -8 30 -3 17
-1 30 4 30 4 0 8 -13 8 -30z m1550 -406 l0 -154 -25 0 -25 0 0 154 c0 115 3
155 13 159 33 12 37 -3 37 -159z m-185 -14 c0 -163 0 -165 -22 -168 l-23 -3 0
164 c0 90 3 167 7 171 4 4 14 5 23 4 13 -3 15 -27 15 -168z m50 -1 c0 -148 -2
-164 -17 -167 -17 -3 -18 10 -18 161 0 90 3 167 7 171 22 22 28 -10 28 -165z
m73 -5 c-3 -142 -5 -159 -20 -162 -17 -3 -18 10 -18 161 0 123 3 167 13 170 6
2 15 1 20 -3 4 -3 6 -78 5 -166z m-671 144 c-3 -8 -6 -5 -6 6 -1 11 2 17 5 13
3 -3 4 -12 1 -19z m84 -53 l5 -70 2 73 c2 63 4 72 21 72 17 0 18 -11 20 -135
2 -117 0 -135 -13 -135 -10 0 -17 10 -17 28 l-2 27 -4 -27 c-2 -16 -11 -28
-19 -28 -11 0 -14 16 -15 68 -1 55 -3 61 -9 32 l-7 -35 -2 38 c-2 62 -21 32
-21 -33 0 -47 -3 -58 -14 -54 -10 4 -12 13 -6 34 4 15 11 71 15 124 l7 97 27
-3 c25 -3 26 -7 32 -73z m249 -110 c0 -158 -2 -185 -15 -185 -13 0 -15 27 -15
185 0 158 2 185 15 185 13 0 15 -27 15 -185z m90 30 l6 -150 2 153 2 152 25 0
25 0 -2 -167 -3 -168 -34 3 c-19 1 -38 -3 -42 -9 -4 -6 -12 -8 -18 -5 -7 5
-11 63 -11 177 l0 170 23 -3 c21 -3 22 -7 27 -153z m-143 -137 c-1 -51 -3 -10
-3 92 0 102 2 143 3 93 2 -51 2 -135 0 -185z m-27 72 l0 -181 -22 12 c-16 9
-23 9 -26 0 -2 -6 -8 -11 -13 -11 -10 0 -12 147 -2 267 6 86 4 82 56 92 4 0 7
-80 7 -179z m-360 -62 c0 -86 -4 -138 -10 -138 -6 0 -10 57 -10 153 0 102 4
147 10 137 5 -8 10 -77 10 -152z m30 12 c0 -93 -4 -150 -10 -150 -6 0 -10 57
-10 150 0 93 4 150 10 150 6 0 10 -57 10 -150z m-63 -77 c-1 -43 -3 -10 -3 72
0 83 2 118 3 78 2 -40 2 -107 0 -150z m-80 -5 c-1 -40 -3 -8 -3 72 0 80 2 112
3 73 2 -40 2 -106 0 -145z m63 72 l0 -140 -25 0 -25 0 0 140 0 140 25 0 25 0
0 -140z m-82 -7 l-2 -138 -6 125 c-5 116 -4 150 6 150 2 0 3 -62 2 -137z m-31
-70 c-2 -38 -3 -7 -3 67 0 74 1 105 3 68 2 -38 2 -98 0 -135z m-30 0 c-2 -37
-3 -9 -3 62 0 72 1 102 3 68 2 -34 2 -93 0 -130z m2083 172 c0 -10 -10 -15
-33 -15 -19 0 -60 -9 -93 -20 -79 -26 -114 -26 -114 0 0 16 7 20 38 21 20 0
64 6 97 14 81 18 105 18 105 0z m-2123 -182 c-3 -54 -5 -63 -12 -43 l-9 25 -7
-25 c-4 -14 -7 30 -8 98 -1 74 3 121 8 117 5 -3 13 0 18 7 10 16 15 -83 10
-179z m20 5 c-2 -35 -3 -7 -3 62 0 69 1 97 3 63 2 -35 2 -91 0 -125z m-70 55
c1 -78 -2 -112 -13 -127 -12 -18 -14 -18 -14 -3 0 22 -17 22 -23 0 -3 -10 -5
13 -6 51 -1 64 0 68 19 63 18 -5 20 0 20 59 0 35 3 64 8 64 4 0 8 -48 9 -107z
m-50 30 c-2 -16 -4 -5 -4 22 0 28 2 40 4 28 2 -13 2 -35 0 -50z m20 30 c-3
-10 -5 -4 -5 12 0 17 2 24 5 18 2 -7 2 -21 0 -30z m-38 -97 c-1 -73 -4 -101
-9 -81 l-8 30 -3 -30 c-2 -16 -5 17 -8 75 -7 120 -7 117 14 117 13 0 15 -17
14 -111z m-88 92 c0 -10 2 -10 6 0 2 6 12 12 20 12 13 0 15 -8 9 -46 -3 -26
-6 -73 -6 -105 0 -79 -20 -76 -22 4 l-2 62 -3 -55 c-5 -75 -9 -85 -28 -66 -17
16 -20 56 -5 56 6 0 10 14 10 30 0 17 -5 30 -12 30 -9 0 -8 4 2 11 11 8 12 12
3 16 -7 2 -13 11 -13 19 0 28 39 58 41 32z m-56 -196 c-12 -13 -19 14 -23 94
-4 66 -1 88 9 95 12 7 15 -9 17 -88 1 -52 0 -98 -3 -101z m-65 88 c0 -49 -4
-90 -9 -90 -9 0 -21 156 -13 173 2 4 7 7 13 7 5 0 9 -40 9 -90z m17 -47 c-2
-27 -3 -5 -3 47 0 52 1 74 3 48 2 -27 2 -69 0 -95z m1479 91 c-4 -10 -16 -14
-38 -12 -44 4 -43 28 2 43 37 13 49 3 36 -31z m-835 -8 c2 -20 2 -20 6 2 8 42
23 22 23 -32 l0 -54 -31 2 c-16 1 -32 -1 -35 -6 -13 -20 -24 7 -24 56 0 61 2
65 35 58 17 -3 25 -11 26 -26z m59 -41 c0 -25 -4 -45 -10 -45 -5 0 -10 20 -10
45 0 25 5 45 10 45 6 0 10 -20 10 -45z m30 -1 c0 -27 -4 -43 -10 -39 -5 3 -10
24 -10 46 0 21 5 39 10 39 6 0 10 -21 10 -46z m61 36 c5 0 9 -17 9 -37 0 -28
-3 -34 -10 -23 -6 10 -10 11 -10 3 0 -7 -7 -13 -15 -13 -11 0 -15 11 -15 41 0
33 3 40 16 35 9 -3 20 -6 25 -6z"/>
<path d="M3633 3887 l-43 -20 0 -311 0 -311 53 -13 c29 -6 58 -12 65 -12 10 0
12 77 12 345 l-1 345 -22 -1 c-12 -1 -41 -11 -64 -22z m54 -62 c-2 -20 -9 -41
-15 -47 -17 -17 -15 -108 3 -142 18 -35 19 -65 2 -72 -18 -6 -19 -44 -1 -44
10 0 14 -14 14 -55 0 -54 -1 -55 -29 -55 -26 0 -29 3 -35 46 -3 26 -6 127 -6
225 l0 179 35 0 c35 0 35 -1 32 -35z"/>
<path d="M4153 3953 c-10 -3 -13 -41 -13 -142 l0 -137 60 0 60 1 0 130 0 130
-32 14 c-29 13 -33 13 -50 -9 -10 -12 -22 -20 -25 -16 -4 4 -1 11 7 16 17 10
11 19 -7 13z m87 -23 c8 -5 11 -12 7 -16 -4 -4 -15 0 -24 9 -18 18 -8 23 17 7z"/>
<path d="M4140 3545 l0 -85 60 0 60 0 0 85 0 85 -60 0 -60 0 0 -85z m110 54
c0 -7 -17 -10 -45 -7 l-46 3 3 -55 c3 -54 3 -55 38 -61 l35 -6 -42 -2 -43 -1
0 70 0 70 50 0 c30 0 50 -4 50 -11z"/>
<path d="M5142 3972 c-9 -3 -12 -40 -12 -138 l0 -134 25 0 25 0 0 126 c0 126
-8 156 -38 146z"/>
<path d="M5104 3825 c0 -77 2 -107 3 -67 2 40 2 103 0 140 -2 37 -3 4 -3 -73z"/>
<path d="M5084 3645 c0 -82 2 -115 3 -72 2 43 2 110 0 150 -1 40 -3 5 -3 -78z"/>
<path d="M5193 3735 c0 -22 2 -30 4 -17 2 12 2 30 0 40 -3 9 -5 -1 -4 -23z"/>
<path d="M5103 3610 c0 -41 2 -58 4 -37 2 20 2 54 0 75 -2 20 -4 3 -4 -38z"/>
<path d="M5129 3653 c-11 -63 -4 -83 27 -83 22 0 24 4 24 45 0 41 -2 45 -25
45 -14 0 -26 -3 -26 -7z"/>
<path d="M5102 3480 c0 -14 2 -19 5 -12 2 6 2 18 0 25 -3 6 -5 1 -5 -13z"/>
<path d="M5194 3370 c0 -74 1 -105 3 -67 2 37 2 97 0 135 -2 37 -3 6 -3 -68z"/>
<path d="M5121 3427 c-11 -62 -14 -204 -4 -179 2 6 18 12 34 12 l29 0 0 115
c0 115 0 115 -24 115 -22 0 -25 -6 -35 -63z"/>
<path d="M5805 3930 c-13 -20 -20 -229 -8 -241 5 -5 17 -7 26 -3 14 5 17 20
17 83 0 88 -21 184 -35 161z"/>
<path d="M5761 3803 c1 -53 3 -61 9 -38 11 45 11 105 0 105 -6 0 -10 -28 -9
-67z"/>
<path d="M5790 3641 c-11 -22 -14 -92 -2 -76 4 6 13 10 20 11 6 1 19 2 27 3
11 1 15 13 15 41 0 36 -3 40 -25 40 -14 0 -29 -8 -35 -19z"/>
<path d="M5796 3457 c4 -157 2 -147 29 -147 l26 0 -2 95 -2 95 -26 0 c-24 0
-26 -3 -25 -43z"/>
<path d="M3761 3014 c0 -11 3 -14 6 -6 3 7 2 16 -1 19 -3 4 -6 -2 -5 -13z"/>
<path d="M3581 3074 c0 -11 3 -14 6 -6 3 7 2 16 -1 19 -3 4 -6 -2 -5 -13z"/>
<path d="M5616 4753 c4 -16 13 -35 20 -44 8 -8 14 -25 14 -36 0 -38 29 -93 49
-93 23 0 35 31 26 61 -5 15 -4 19 4 15 7 -5 11 3 11 21 0 16 6 35 12 41 10 10
10 15 -2 22 -23 14 -29 12 -23 -9 3 -11 1 -27 -4 -36 -8 -13 -12 -9 -22 23
-20 59 -98 91 -85 35z"/>
<path d="M3819 4730 c-24 -16 -52 -30 -61 -30 -22 0 -24 -16 -4 -27 19 -11 78
-120 68 -127 -11 -7 -102 81 -102 99 0 14 -4 14 -31 -2 -23 -14 -28 -23 -23
-38 3 -11 11 -53 17 -92 11 -75 16 -83 36 -60 8 10 5 27 -9 67 -11 30 -17 56
-14 59 8 9 24 -22 24 -47 0 -13 4 -20 10 -17 6 3 10 -1 10 -9 0 -18 16 -21 25
-6 3 6 13 10 21 10 7 0 37 16 64 36 49 35 50 37 30 51 -22 16 -28 46 -7 41 17
-4 20 3 12 35 -8 31 -25 36 -25 7 0 -29 -16 -25 -32 8 l-14 28 33 -4 c28 -4
33 -1 33 16 0 33 -15 34 -61 2z"/>
<path d="M4023 4703 c-13 -43 -12 -47 15 -39 28 9 34 32 14 56 -17 21 -17 21
-29 -17z"/>
<path d="M5605 4698 c-2 -7 -5 -24 -8 -38 -2 -14 -8 -33 -12 -42 -5 -14 -2
-18 12 -18 16 0 19 9 21 55 2 51 -4 71 -13 43z"/>
<path d="M5813 4695 c-7 -8 -13 -17 -13 -21 0 -4 -13 -29 -30 -56 -35 -56 -35
-58 -15 -58 9 0 15 9 15 21 0 15 4 19 16 15 9 -3 20 -6 26 -6 6 0 8 -10 4 -24
-6 -26 6 -40 44 -49 l25 -6 -4 82 c-2 45 -7 90 -12 100 -12 20 -39 22 -56 2z
m7 -65 c0 -20 -5 -30 -15 -30 -18 0 -18 2 -3 35 15 32 18 32 18 -5z"/>
<path d="M3586 4582 c-3 -5 -19 -12 -35 -15 -28 -6 -61 -50 -61 -83 0 -24 23
-64 37 -64 7 0 13 -7 13 -15 0 -11 11 -15 40 -15 27 0 43 5 46 15 4 8 12 15
20 15 9 0 14 11 14 30 0 17 -4 30 -9 30 -5 0 -11 -13 -14 -30 -4 -16 -12 -30
-19 -30 -15 1 -42 35 -52 68 -4 12 -12 22 -17 22 -5 0 -9 9 -9 20 0 25 41 28
65 4 21 -21 26 -15 17 21 -8 30 -26 43 -36 27z"/>
<path d="M3346 4435 c-8 -8 -19 -15 -25 -15 -16 0 -13 -17 4 -24 8 -3 15 -12
15 -20 0 -9 9 -31 20 -51 11 -20 20 -43 20 -51 0 -9 3 -14 8 -12 4 2 23 11 43
20 52 25 62 40 47 74 l-12 29 -4 -32 c-3 -32 -32 -49 -32 -19 0 7 -7 19 -15
26 -8 7 -20 30 -27 51 -12 43 -19 47 -42 24z"/>
<path d="M3265 4380 c-10 -11 -23 -20 -29 -20 -6 0 -16 -8 -23 -19 -13 -21 -1
-68 30 -111 9 -13 17 -33 17 -44 0 -19 2 -19 26 5 25 25 25 27 10 57 -21 40
-21 40 10 34 26 -5 26 -5 9 22 -20 30 -35 34 -35 9 0 -14 -3 -13 -16 6 -14 19
-14 25 -3 32 8 4 19 3 26 -3 19 -16 25 -5 14 26 -13 31 -13 31 -36 6z"/>
<path d="M3340 4271 c0 -10 -3 -27 -6 -35 -5 -12 -2 -15 10 -10 18 7 22 49 6
59 -5 3 -10 -3 -10 -14z"/>
<path d="M5800 2970 c20 -13 33 -13 25 0 -3 6 -14 10 -23 10 -15 0 -15 -2 -2
-10z"/>
<path d="M6238 2973 c7 -3 16 -2 19 1 4 3 -2 6 -13 5 -11 0 -14 -3 -6 -6z"/>
<path d="M6148 2953 c7 -3 16 -2 19 1 4 3 -2 6 -13 5 -11 0 -14 -3 -6 -6z"/>
<path d="M3302 2930 c0 -14 2 -19 5 -12 2 6 2 18 0 25 -3 6 -5 1 -5 -13z"/>
<path d="M5895 2940 c11 -5 27 -9 35 -9 9 0 8 4 -5 9 -11 5 -27 9 -35 9 -9 0
-8 -4 5 -9z"/>
<path d="M6098 2943 c7 -3 16 -2 19 1 4 3 -2 6 -13 5 -11 0 -14 -3 -6 -6z"/>
<path d="M6395 2780 c-18 -19 -17 -20 3 -20 15 0 22 6 22 20 0 11 -2 20 -3 20
-2 0 -12 -9 -22 -20z"/>
<path d="M3468 2750 c30 -13 200 -31 332 -35 l105 -3 -90 9 c-49 5 -128 13
-175 19 -167 19 -197 21 -172 10z"/>
<path d="M4993 2733 c9 -2 23 -2 30 0 6 3 -1 5 -18 5 -16 0 -22 -2 -12 -5z"/>
<path d="M4250 2720 l-215 -6 260 0 c143 -1 332 2 420 6 l160 6 -205 0 c-113
0 -302 -3 -420 -6z"/>
<path d="M8179 1840 c-52 -30 -322 -116 -539 -170 -524 -132 -1111 -214 -1905
-267 -331 -22 -1565 -25 -1905 -5 -1024 61 -1802 185 -2285 365 -66 24 -129
47 -140 51 -68 24 160 -85 253 -120 511 -198 1215 -335 2042 -398 699 -54
1646 -46 2310 19 778 77 1479 228 1977 429 111 44 236 105 218 105 -5 0 -17
-4 -26 -9z"/>
<path d="M5534 9012 c-200 -148 -315 -337 -318 -522 -1 -108 23 -163 122 -275
95 -107 124 -161 130 -244 6 -95 -21 -242 -61 -322 l-32 -66 45 38 c125 105
210 258 210 377 0 95 -47 209 -124 304 -77 94 -91 131 -90 228 1 139 69 334
168 479 20 30 35 56 33 58 -3 2 -40 -23 -83 -55z"/>
</g>
</svg>
