<?xml version="1.0" standalone="no"?>
<!DOCTYPE svg PUBLIC "-//W3C//DTD SVG 20010904//EN"
 "http://www.w3.org/TR/2001/REC-SVG-20010904/DTD/svg10.dtd">
<svg version="1.0" xmlns="http://www.w3.org/2000/svg"
 width="960.000000pt" height="960.000000pt" viewBox="0 0 960.000000 960.000000"
 preserveAspectRatio="xMidYMid meet">

<g transform="translate(0.000000,960.000000) scale(0.100000,-0.100000)"
fill="#000000" stroke="none">
<path d="M4979 9201 c-145 -149 -254 -323 -308 -490 -69 -214 -51 -353 99
-736 125 -322 151 -437 135 -618 l-7 -87 -150 0 -150 0 7 108 c12 175 -17 338
-82 467 -45 88 -84 137 -227 285 -151 155 -190 213 -207 306 -21 114 33 344
120 510 l38 73 -56 -44 c-79 -61 -181 -170 -229 -244 -65 -100 -85 -162 -85
-261 1 -155 55 -256 217 -403 228 -207 289 -291 345 -472 21 -65 61 -275 61
-314 0 -16 -17 -19 -162 -24 -1035 -41 -2142 -352 -2489 -699 -111 -112 -121
-163 -121 -638 -1 -814 133 -1534 398 -2149 30 -69 53 -126 51 -127 -1 -1 -68
-20 -148 -43 -491 -138 -900 -321 -1155 -517 -94 -71 -240 -225 -283 -297 -64
-109 -84 -179 -85 -302 -1 -90 3 -122 22 -176 117 -341 554 -645 1263 -879
1098 -364 2756 -498 4244 -345 1390 144 2476 521 2855 991 236 294 209 606
-76 888 -121 120 -314 251 -503 342 -45 22 -81 41 -81 45 0 3 21 15 48 28 105
50 249 157 353 260 197 197 278 352 374 716 77 289 99 554 62 725 -36 165
-138 305 -268 369 -131 63 -139 64 -649 69 l-465 4 3 321 c5 376 -6 545 -39
608 -142 279 -856 574 -1738 719 -198 32 -474 65 -638 76 -57 4 -103 8 -103
10 0 2 7 46 16 96 33 186 5 374 -96 658 -139 389 -160 477 -160 669 0 226 52
450 135 581 14 22 22 40 18 40 -5 0 -51 -44 -104 -99z m-105 -2070 c7 -10 -41
-299 -85 -515 -16 -82 -28 -151 -25 -153 12 -12 173 231 245 370 27 54 67 141
87 194 l37 96 116 -7 c321 -18 782 -89 1116 -172 319 -79 545 -157 779 -266
239 -112 368 -213 395 -310 15 -53 27 -619 16 -769 l-7 -107 -43 -6 c-84 -13
-177 -95 -206 -183 -13 -40 -8 -158 7 -173 8 -8 23 8 52 53 63 96 126 153 218
198 l81 39 429 -15 c467 -16 562 -24 631 -55 225 -100 306 -406 212 -810 -33
-141 -137 -438 -191 -545 -67 -132 -119 -205 -213 -293 -291 -277 -785 -437
-1463 -474 l-223 -12 -89 -112 c-301 -377 -643 -635 -1070 -807 -235 -96 -358
-120 -675 -138 -255 -14 -760 -6 -867 15 -96 18 -253 66 -380 117 -1067 425
-1719 1472 -1873 3009 -27 268 -37 603 -25 844 12 247 17 264 100 340 348 314
1433 607 2383 643 l169 6 -6 -124 c-6 -119 -5 -122 9 -84 9 22 25 76 36 120
11 44 23 83 25 87 7 11 292 10 298 -1z m-2603 -3654 c12 -23 44 -79 71 -125
28 -46 48 -85 47 -87 -2 -2 -62 -24 -134 -50 -346 -124 -561 -268 -634 -425
-36 -78 -36 -182 0 -260 155 -335 962 -607 2119 -714 360 -34 535 -41 1045
-41 604 1 905 18 1385 81 965 127 1620 377 1758 671 38 82 38 184 0 265 -49
106 -160 203 -338 297 -51 27 -88 51 -84 54 5 2 32 8 59 11 89 13 267 55 387
93 l118 36 162 -80 c820 -406 914 -871 263 -1301 -490 -324 -1398 -579 -2470
-691 -443 -47 -634 -55 -1235 -56 -588 0 -727 5 -1160 46 -1748 163 -3002 698
-3001 1280 0 142 64 262 217 409 205 197 550 377 1000 524 177 57 387 115 397
109 4 -2 17 -23 28 -46z m209 -338 c30 -55 222 -278 336 -389 307 -300 643
-502 1063 -640 246 -81 280 -85 766 -84 644 2 773 22 1113 170 219 96 442 230
632 380 114 91 338 316 434 437 l78 97 169 0 170 0 91 -35 c308 -119 508 -281
508 -412 0 -321 -885 -631 -2100 -737 -611 -54 -1331 -54 -1930 0 -791 70
-1408 212 -1793 411 -191 100 -307 221 -307 320 0 166 240 332 700 486 59 20
58 20 70 -4z"/>
<path d="M2595 6641 c-405 -106 -594 -240 -595 -424 0 -107 52 -184 184 -271
264 -176 767 -312 1431 -386 1541 -171 3304 49 3721 465 59 59 84 114 84 188
0 147 -140 273 -405 367 -87 30 -286 83 -292 77 -1 -2 34 -18 80 -36 212 -86
398 -202 461 -288 66 -89 55 -144 -45 -239 -62 -57 -128 -97 -247 -148 -97
-41 -102 -42 -102 -18 0 76 -282 158 -725 211 -1029 124 -2660 82 -3301 -85
-164 -42 -254 -96 -241 -144 7 -27 1 -26 -105 15 -191 74 -323 163 -366 247
-30 59 -25 95 22 159 68 92 213 183 451 281 156 64 153 71 -10 29z"/>
<path d="M2818 5565 c77 -35 269 -99 424 -140 482 -127 1008 -184 1573 -172
506 11 951 73 1344 186 137 40 334 111 327 119 -2 2 -56 -8 -120 -23 -691
-155 -1704 -206 -2536 -129 -308 28 -663 85 -905 145 -66 16 -129 32 -140 34
-11 3 4 -6 33 -20z"/>
<path d="M7516 5068 c-3 -13 -14 -77 -26 -143 -60 -340 -181 -746 -341 -1141
-11 -29 -18 -32 -67 -38 -149 -18 -294 -154 -310 -291 -9 -82 1 -84 76 -14
167 158 251 204 392 214 355 26 753 117 962 222 111 55 210 147 251 233 51
107 108 344 128 534 13 119 1 240 -30 310 -24 55 -81 110 -130 124 -26 8 -171
12 -469 12 l-432 0 -4 -22z m882 -118 c52 -32 67 -78 66 -200 -2 -157 -80
-489 -142 -604 -75 -138 -333 -261 -693 -331 -120 -23 -349 -55 -349 -49 0 1
16 39 35 84 112 263 229 672 290 1023 l17 97 372 0 c354 0 372 -1 404 -20z"/>
<path d="M8179 1840 c-52 -30 -322 -116 -539 -170 -524 -132 -1111 -214 -1905
-267 -331 -22 -1565 -25 -1905 -5 -1024 61 -1802 185 -2285 365 -66 24 -129
47 -140 51 -68 24 160 -85 253 -120 511 -198 1215 -335 2042 -398 699 -54
1646 -46 2310 19 778 77 1479 228 1977 429 111 44 236 105 218 105 -5 0 -17
-4 -26 -9z"/>
<path d="M5534 9012 c-200 -148 -315 -337 -318 -522 -1 -108 23 -163 122 -275
95 -107 124 -161 130 -244 6 -95 -21 -242 -61 -322 l-32 -66 45 38 c125 105
210 258 210 377 0 95 -47 209 -124 304 -77 94 -91 131 -90 228 1 139 69 334
168 479 20 30 35 56 33 58 -3 2 -40 -23 -83 -55z"/>
</g>
</svg>
